<svg width="22" height="22" viewBox="0 0 22 22" xmlns="http://www.w3.org/2000/svg" xmlns:xlink="http://www.w3.org/1999/xlink" xmlns:figma="http://www.figma.com/figma/ns"><title>super g</title><desc>Created using Figma</desc><g figma:type="canvas"><g figma:type="frame"><use xlink:href="#a" transform="translate(1.3 .146)" fill="#EA4335" figma:type="vector"/><use xlink:href="#b" transform="translate(10.964 8.993)" fill="#4285F4" figma:type="vector"/><use xlink:href="#c" transform="translate(.146 6.108)" fill="#FBBC05" figma:type="vector"/><use xlink:href="#d" transform="translate(1.312 13.103)" fill="#34A853" figma:type="vector"/></g></g><defs><path id="a" fill-rule="evenodd" d="M9.664 4.183c2.031 0 3.401.877 4.183 1.61l3.053-2.98C15.025 1.07 12.585 0 9.664 0A10.81 10.81 0 0 0 0 5.962l3.498 2.716c.877-2.608 3.305-4.495 6.166-4.495z"/><path id="b" fill-rule="evenodd" d="M10.385 2.212c0-.89-.072-1.539-.228-2.212H0v4.015h5.962c-.12.997-.77 2.5-2.212 3.51l3.414 2.644c2.043-1.887 3.221-4.664 3.221-7.957z"/><path id="c" fill-rule="evenodd" d="M4.664 6.995a6.66 6.66 0 0 1-.361-2.139c0-.745.132-1.466.349-2.14L1.154 0A10.827 10.827 0 0 0 0 4.856c0 1.743.42 3.39 1.154 4.856l3.51-2.717z"/><path id="d" fill-rule="evenodd" d="M9.652 8.678c2.92 0 5.373-.961 7.164-2.62l-3.414-2.644c-.914.637-2.14 1.081-3.75 1.081-2.86 0-5.289-1.887-6.154-4.495L0 2.716C1.779 6.25 5.42 8.678 9.652 8.678z"/></defs></svg>