<svg width="35" height="20" viewBox="0 0 35 20" xmlns="http://www.w3.org/2000/svg" xmlns:xlink="http://www.w3.org/1999/xlink"><title>vklogo</title><desc>Created using Figma</desc><use xlink:href="#a" fill="#FFF"/><defs><path id="a" d="M34.814 17.83a2.363 2.363 0 0 0-.118-.225c-.607-1.08-1.768-2.408-3.48-3.982l-.037-.036-.018-.017-.018-.018h-.019c-.777-.733-1.27-1.226-1.476-1.478-.377-.48-.461-.967-.255-1.46.145-.372.692-1.158 1.64-2.36.498-.636.893-1.147 1.184-1.531 2.102-2.763 3.013-4.528 2.734-5.297l-.109-.18c-.073-.108-.261-.207-.564-.297-.304-.09-.693-.105-1.167-.045L27.863.94c-.085-.03-.206-.027-.365.009l-.237.054-.091.045-.073.054a.807.807 0 0 0-.2.19c-.073.09-.133.194-.182.315a29.265 29.265 0 0 1-1.95 4.053c-.45.745-.862 1.39-1.24 1.937-.376.547-.692.95-.947 1.207a6.587 6.587 0 0 1-.692.622c-.207.156-.365.222-.474.198a13.46 13.46 0 0 1-.31-.072 1.203 1.203 0 0 1-.41-.442 1.958 1.958 0 0 1-.21-.702 7.636 7.636 0 0 1-.063-.73c-.006-.204-.003-.493.009-.865.013-.372.018-.624.018-.757 0-.456.01-.952.027-1.486l.046-1.27c.013-.312.018-.643.018-.991 0-.349-.021-.622-.064-.82a2.784 2.784 0 0 0-.19-.577.975.975 0 0 0-.374-.432 2.12 2.12 0 0 0-.61-.243c-.644-.144-1.464-.222-2.46-.234-2.26-.024-3.712.12-4.356.432a2.45 2.45 0 0 0-.693.54c-.218.265-.249.41-.09.433.728.108 1.244.366 1.548.774l.11.217c.085.156.17.432.255.829.085.396.14.834.164 1.315.06.877.06 1.627 0 2.252-.061.625-.119 1.11-.173 1.46-.055.348-.137.63-.246.846-.11.216-.183.348-.22.396a.312.312 0 0 1-.09.09c-.158.06-.322.09-.492.09-.17 0-.377-.083-.62-.252a4.354 4.354 0 0 1-.756-.693c-.261-.295-.556-.706-.884-1.235a21.448 21.448 0 0 1-1.02-1.873L8.984 5.1a44.746 44.746 0 0 1-.747-1.468 28.153 28.153 0 0 1-.838-1.865 1.19 1.19 0 0 0-.438-.577l-.09-.054a1.252 1.252 0 0 0-.292-.153 1.95 1.95 0 0 0-.42-.117L1.168.903c-.51 0-.857.114-1.04.342l-.072.108A.577.577 0 0 0 0 1.642c0 .132.036.294.11.486a59.172 59.172 0 0 0 2.377 4.9C3.344 8.603 4.088 9.87 4.72 10.83a44.883 44.883 0 0 0 1.931 2.72c.656.854 1.09 1.4 1.303 1.64.213.24.38.42.501.54l.456.433c.292.288.72.634 1.285 1.036.565.403 1.19.799 1.877 1.19.686.39 1.485.708 2.396.954a8.378 8.378 0 0 0 2.66.298h2.096c.425-.036.747-.169.966-.397l.073-.09a1.18 1.18 0 0 0 .136-.333 1.81 1.81 0 0 0 .064-.495 5.878 5.878 0 0 1 .118-1.396c.091-.415.195-.727.31-.937.116-.21.247-.388.392-.532.146-.144.25-.231.31-.261.061-.03.11-.05.146-.063.291-.096.634-.003 1.03.28.395.282.765.63 1.111 1.045.347.414.763.88 1.248 1.396.487.516.912.9 1.276 1.153l.364.216c.244.144.56.276.948.396.389.12.729.15 1.02.09l4.666-.071c.46 0 .82-.076 1.075-.226.255-.15.406-.315.455-.495.05-.18.052-.385.01-.613a2.241 2.241 0 0 0-.129-.477z"/></defs></svg>