<svg width="11" height="22" viewBox="0 0 11 22" xmlns="http://www.w3.org/2000/svg" xmlns:xlink="http://www.w3.org/1999/xlink" xmlns:figma="http://www.figma.com/figma/ns"><title>Vector</title><desc>Created using Figma</desc><g figma:type="canvas"><use xlink:href="#a" fill="#F00" figma:type="vector"/></g><defs><path id="a" d="M10.03 0H6.964C3.86 0 .724 2.338.724 7.563c0 2.706 1.126 4.813 3.187 6.012L.138 20.54c-.18.33-.184.703-.013.998A.93.93 0 0 0 .942 22H2.85c.433 0 .772-.214.934-.588l3.538-7.057h.258v6.765c0 .477.395.88.862.88h1.668c.523 0 .889-.373.889-.907V.963C11 .396 10.601 0 10.03 0zM7.58 11.22h-.455c-1.767 0-2.821-1.47-2.821-3.932 0-3.062 1.332-4.153 2.579-4.153h.697v8.085z"/></defs></svg>