<svg width="23" height="16" viewBox="0 0 23 16" xmlns="http://www.w3.org/2000/svg" xmlns:xlink="http://www.w3.org/1999/xlink" xmlns:figma="http://www.figma.com/figma/ns"><title>Vector</title><desc>Created using Figma</desc><g figma:type="canvas"><use xlink:href="#a" fill="#F61C0D" figma:type="vector"/></g><defs><path id="a" d="M18.11 0H4.747C2.125 0 0 2.102 0 4.696v6.608C0 13.898 2.125 16 4.747 16H18.11c2.622 0 4.747-2.102 4.747-4.696V4.696C22.857 2.102 20.732 0 18.11 0zM14.9 8.322L8.65 11.27a.25.25 0 0 1-.36-.224V4.964a.25.25 0 0 1 .365-.221l6.25 3.133a.247.247 0 0 1-.005.446z"/></defs></svg>