<svg width="94" height="77" viewBox="0 0 94 77" version="1.1" xmlns="http://www.w3.org/2000/svg" xmlns:xlink="http://www.w3.org/1999/xlink" xmlns:figma="http://www.figma.com/figma/ns">
<title>dove</title>
<desc>Created using Figma</desc>
<g id="Canvas" transform="translate(-423 -1069)" figma:type="canvas">
<g id="dove" figma:type="frame">
<g id="Vector" figma:type="vector">
<use xlink:href="#path0_fill" transform="translate(435 1144)" fill="#8CA3BA"/>
</g>
<g id="Vector" figma:type="vector">
<use xlink:href="#path1_fill" transform="translate(456.429 1144.22)" fill="#4F647A"/>
</g>
<g id="Vector" figma:type="vector">
<use xlink:href="#path2_fill" transform="translate(423 1069.26)" fill="#E3E7EA"/>
</g>
<g id="Group" figma:type="frame">
<g id="Vector" figma:type="vector">
<use xlink:href="#path3_fill" transform="translate(481.553 1069.26)" fill="#B7C3CA"/>
</g>
<g id="Vector" figma:type="vector">
<use xlink:href="#path4_fill" transform="translate(424.977 1088.09)" fill="#B7C3CA"/>
</g>
</g>
<g id="Group" figma:type="frame">
<g id="Vector" figma:type="vector">
<use xlink:href="#path5_fill" transform="translate(423.09 1079.41)" fill="#97A0A4"/>
</g>
<g id="Vector" figma:type="vector">
<use xlink:href="#path6_fill" transform="translate(425.244 1089.88)" fill="#979FA4"/>
</g>
<g id="Vector" figma:type="vector">
<use xlink:href="#path7_fill" transform="translate(430.056 1098.03)" fill="#979FA4"/>
</g>
<g id="Vector" figma:type="vector">
<use xlink:href="#path8_fill" transform="translate(439.451 1104.86)" fill="#979FA4"/>
</g>
<g id="Vector" figma:type="vector">
<use xlink:href="#path9_fill" transform="translate(449.844 1108.72)" fill="#979FA4"/>
</g>
</g>
<g id="Vector" figma:type="vector">
<use xlink:href="#path10_fill" transform="translate(493.279 1076.54)" fill="#4D4D4D"/>
</g>
</g>
</g>
<defs>
<path id="path0_fill" d="M 41 2C 63.6437 2 82 1.55228 82 1C 82 0.447715 63.6437 2.75865e-06 41 2.75865e-06C 18.3563 2.75865e-06 0 0.447715 0 1C 0 1.55228 18.3563 2 41 2Z"/>
<path id="path1_fill" d="M 18.898 1.01695C 29.3351 1.01695 37.796 0.789297 37.796 0.508474C 37.796 0.227652 29.3351 0 18.898 0C 8.46092 0 0 0.227652 0 0.508474C 0 0.789297 8.46092 1.01695 18.898 1.01695Z"/>
<path id="path2_fill" d="M 88.7558 5.86622C 88.6595 5.90554 88.563 5.94485 88.4676 5.9861C 83.0174 8.34939 79.782 14.0352 80.5669 19.937C 81.9151 30.0583 78.1542 39.5484 71.3984 46.0139C 65.8847 51.2917 58.3739 54.5561 50.0203 54.5041C 49.1912 54.4989 48.3733 54.6648 47.6246 54.9894C 47.1516 55.1944 46.7063 55.4629 46.3003 55.7925C 40.4744 60.5216 38.2663 66.3834 37.459 69.535C 37.104 70.9188 35.7984 71.8343 34.3718 71.7313C 24.4127 71.0047 19.4578 65.063 17.2559 61.1688C 16.3452 59.5591 17.1204 57.5203 18.8747 56.9284C 26.7327 54.2755 32.5087 48.1821 34.4138 45.9703C 34.542 45.819 34.6559 45.6867 34.7477 45.5739C 34.8806 45.4158 34.9747 45.2967 35.0324 45.2267C 35.0725 45.1741 35.0938 45.1474 35.0938 45.1474C 34.045 45.0086 33.0251 44.8499 32.0355 44.6679C 30.2048 44.3377 28.4759 43.9355 26.8432 43.4691C 24.5855 42.8308 22.514 42.0694 20.6149 41.213C 19.1228 40.5373 17.7363 39.803 16.4505 39.0175C 13.9135 37.4719 11.7629 35.7312 9.93989 33.8685C 8.86954 32.7784 7.91357 31.6436 7.05626 30.4865C 5.6893 28.6347 4.57975 26.714 3.67978 24.7882L 3.67871 24.786C 3.12232 23.5962 2.64972 22.4079 2.24389 21.2282C 2.15278 20.9609 2.06338 20.6928 1.97744 20.426C 1.2694 18.2056 0.800679 16.0371 0.498896 14.0204C 0.292969 12.651 0.161788 11.3497 0.0898423 10.1487C -0.194277 5.62688 0.286292 2.54129 0.286292 2.54129C 5.17146 5.58628 10.3535 6.6287 15.4357 6.7011C 24.7992 6.83087 33.8223 3.67524 39.996 3.71198C 49.5176 3.77063 58.5258 11.7048 58.5258 11.7048C 58.5351 11.6859 58.5424 11.6676 58.5525 11.6505C 62.5209 3.15188 66.9809 0.466119 70.6607 0.0574859C 71.7118 -0.0589595 72.7003 0.0104353 73.596 0.185318C 73.5981 0.184244 73.5981 0.184243 73.5981 0.184243C 76.4352 0.734673 78.3267 2.32645 78.3267 2.32645C 83.0574 7.10458 88.7558 5.86622 88.7558 5.86622Z"/>
<path id="path3_fill" d="M 15.0435 0.185442C 14.8546 0.232278 5.14129 2.75906 6.2125 16.8382L 2.62946e-07 11.6502C 3.96841 3.15158 8.42837 0.465813 12.1081 0.0571802C 13.1593 -0.0588355 14.1476 0.0105591 15.0435 0.185442Z"/>
<path id="path4_fill" d="M 36.5609 26.5089C 50.0593 24.2305 60.9945 19.9802 57.391 12.0658C 49.5279 -5.20981 4.45824 0.938377 1.64341e-07 1.5915C 3.30992 11.9614 11.8479 23.5146 33.1164 26.3138C 33.1164 26.3138 33.0953 26.3404 33.055 26.3931C 32.9973 26.4636 32.9031 26.5824 32.7702 26.7403C 31.3037 28.5059 25.278 35.2711 16.8772 38.1019C 15.1298 38.6908 14.3729 40.7331 15.2785 42.3356C 17.4801 46.2305 22.4355 52.1709 32.3937 52.8971C 33.8201 53.0011 35.1268 52.0845 35.4805 50.7022C 36.2878 47.549 38.4968 41.6878 44.3218 36.9591C 45.3697 36.1083 46.6908 35.6621 48.042 35.6705C 56.3956 35.7227 63.9066 32.4581 69.4201 27.1803C 54.2332 32.7935 38.7348 27.3328 36.5609 26.5089Z"/>
<path id="path5_fill" d="M 15.3476 4.59164C 15.3427 5.29783 14.9157 5.90305 14.3051 6.16795C 14.0888 6.26163 13.8531 6.31104 13.6035 6.31126C 8.2582 6.27753 3.53351 4.99405 0.409055 3.8717C 0.203127 2.50229 0.0719451 1.20098 -1.77488e-07 5.24521e-08C 0.730439 0.299492 1.6541 0.648183 2.73026 0.999023C 5.5385 1.91147 9.39683 2.82627 13.6261 2.85098C 14.581 2.85657 15.3543 3.63559 15.3476 4.59164Z"/>
<path id="path6_fill" d="M 14.1013 1.1929C 14.3815 2.0497 13.9585 2.96493 13.1462 3.31706C 13.0975 3.33812 13.0456 3.3581 12.9919 3.37378C 9.96249 4.36056 5.19923 4.3713 1.43589 4.17214L 1.43481 4.16999C 0.878422 2.98019 0.405823 1.79189 5.91628e-08 0.61218C 3.88634 0.891047 9.10604 1.00169 11.9143 0.0860261C 12.8263 -0.210888 13.8042 0.285618 14.1013 1.1929Z"/>
<path id="path7_fill" d="M 11.3551 3.26356C 11.1504 3.37249 10.937 3.47261 10.7143 3.56929C 8.45573 4.54855 5.4547 4.94708 2.88363 5.09361C 1.81328 4.00349 0.857312 2.86868 -2.62946e-08 1.71153C 2.7867 1.71798 6.84364 1.4752 9.30378 0.408504C 9.45844 0.341473 9.60729 0.271861 9.74902 0.197955C 10.6014 -0.247202 11.6463 0.0845173 12.0883 0.931432C 12.5329 1.77727 12.2042 2.82249 11.3551 3.26356Z"/>
<path id="path8_fill" d="M 9.12176 3.11311C 8.22072 3.78794 6.9522 4.44106 5.59084 5.03167C 5.12212 5.23491 4.64241 5.4302 4.16443 5.61755C 2.67232 4.94186 1.28575 4.20753 -2.49798e-07 3.42206C 2.50925 2.59555 5.59709 1.42509 7.04095 0.346356C 7.80693 -0.227492 8.89343 -0.07195 9.46856 0.692035C 10.0437 1.45602 9.88817 2.53927 9.12176 3.11311Z"/>
<path id="path9_fill" d="M 8.47899 2.96116C 7.78022 3.64887 6.51041 4.46098 5.19234 5.20864C 3.36161 4.87843 1.63277 4.47623 1.63026e-06 4.00981C 2.12971 2.97813 5.16175 1.36659 6.04211 0.499475C 6.72452 -0.173631 7.82287 -0.164395 8.49472 0.514942C 9.16829 1.19363 9.16118 2.28805 8.47899 2.96116Z"/>
<path id="path10_fill" d="M 1.73423 3.45942C 2.69202 3.45942 3.46845 2.685 3.46845 1.72971C 3.46845 0.774417 2.69202 0 1.73423 0C 0.776442 0 2.78722e-06 0.774417 2.78722e-06 1.72971C 2.78722e-06 2.685 0.776442 3.45942 1.73423 3.45942Z"/>
</defs>
</svg>
