<svg width="60" height="60" viewBox="0 0 60 60" version="1.1" xmlns="http://www.w3.org/2000/svg" xmlns:xlink="http://www.w3.org/1999/xlink" xmlns:figma="http://www.figma.com/figma/ns">
<title>VK</title>
<desc>Created using Figma</desc>
<g id="Canvas" transform="translate(2321 726)" figma:type="canvas">
<g id="VK" figma:type="frame">
<g id="back" figma:type="vector">
<use xlink:href="#path0_fill" transform="translate(-2321 -726)" fill="#CCCCCC"/>
</g>
<g id="Shape" figma:type="vector">
<use xlink:href="#path1_fill" transform="translate(-2307 -705)" fill="#FFFFFF"/>
</g>
</g>
</g>
<defs>
<path id="path0_fill" fill-rule="evenodd" d="M 0 30C 0 13.4315 13.4315 0 30 0C 46.5685 0 60 13.4315 60 30C 60 46.5685 46.5685 60 30 60C 13.4315 60 0 46.5685 0 30Z"/>
<path id="path1_fill" fill-rule="evenodd" d="M 17.5693 17.8451C 17.5693 17.8451 18.1469 17.7821 18.4427 17.4702C 18.7134 17.1845 18.704 16.6452 18.704 16.6452C 18.704 16.6452 18.668 14.1272 19.8591 13.7554C 21.0329 13.3898 22.5402 16.1905 24.1397 17.2674C 25.348 18.0817 26.2651 17.9035 26.2651 17.9035L 30.5395 17.8451C 30.5395 17.8451 32.7745 17.7099 31.7149 15.9846C 31.6272 15.8433 31.0967 14.7079 28.5377 12.3758C 25.8566 9.9346 26.2166 10.3294 29.4439 6.1061C 31.4097 3.5343 32.1954 1.96419 31.9497 1.29281C 31.7165 0.650634 30.2703 0.821165 30.2703 0.821165L 25.4591 0.850355C 25.4591 0.850355 25.1023 0.802729 24.8378 0.957897C 24.5795 1.10999 24.412 1.46488 24.412 1.46488C 24.412 1.46488 23.6514 3.45441 22.6356 5.14744C 20.493 8.71784 19.6369 8.9068 19.2863 8.68557C 18.4708 8.16784 18.6743 6.60847 18.6743 5.50079C 18.6743 2.03946 19.2096 0.596862 17.6335 0.223537C 17.1107 0.0990956 16.7257 0.0176708 15.3875 0.00384392C 13.6706 -0.0130556 12.2182 0.00998917 11.3949 0.404823C 10.8471 0.667533 10.4245 1.25441 10.6828 1.28821C 11.0005 1.32969 11.7205 1.47871 12.1024 1.98877C 12.5954 2.64785 12.5782 4.12578 12.5782 4.12578C 12.5782 4.12578 12.8614 8.2001 11.9161 8.70555C 11.2682 9.05275 10.3792 8.34451 8.46815 5.10442C 7.48995 3.4452 6.75121 1.61083 6.75121 1.61083C 6.75121 1.61083 6.60878 1.26823 6.35367 1.08388C 6.04534 0.861109 5.61493 0.791975 5.61493 0.791975L 1.04321 0.821165C 1.04321 0.821165 0.356125 0.839601 0.104141 1.13304C -0.119672 1.39268 0.0869242 1.93192 0.0869242 1.93192C 0.0869242 1.93192 3.66636 10.1528 7.72002 14.2962C 11.4372 18.094 15.6567 17.8451 15.6567 17.8451L 17.5693 17.8451Z"/>
</defs>
</svg>
