<svg width="61" height="60" viewBox="0 0 61 60" version="1.1" xmlns="http://www.w3.org/2000/svg" xmlns:xlink="http://www.w3.org/1999/xlink" xmlns:figma="http://www.figma.com/figma/ns">
<title>Youtube</title>
<desc>Created using Figma</desc>
<g id="Canvas" transform="translate(2231 725)" figma:type="canvas">
<g id="Youtube" figma:type="frame">
<g id="Combined Shape" figma:type="vector-operation">
<use xlink:href="#path0_fill" transform="translate(-2231 -725)" fill="#CCCCCC"/>
</g>
<g id="Path" figma:type="vector">
<use xlink:href="#path1_fill" transform="translate(-2204.3 -699.447)" fill="#CCCCCC"/>
</g>
</g>
</g>
<defs>
<path id="path0_fill" fill-rule="evenodd" d="M 30.0435 0C 13.4509 0 0 13.4315 0 30C 0 46.5685 13.4509 60 30.0435 60C 46.6357 60 60.0867 46.5685 60.0867 30C 60.0867 13.4315 46.6357 0 30.0435 0ZM 44.408 20.7158C 45.3669 21.7081 45.6799 23.9614 45.6799 23.9614C 45.6799 23.9614 46 26.6081 46 29.2538L 46 31.735C 46 34.3817 45.6799 37.0274 45.6799 37.0274C 45.6799 37.0274 45.3669 39.2807 44.408 40.273C 43.3115 41.4468 42.0959 41.5681 41.4087 41.6367C 41.333 41.6442 41.2639 41.6511 41.2019 41.6587C 36.7241 41.9898 30 42 30 42C 30 42 21.6799 41.9224 19.1201 41.671C 18.9988 41.6478 18.8518 41.6298 18.6853 41.6094C 17.8743 41.5099 16.6016 41.354 15.5911 40.273C 14.6321 39.2807 14.3201 37.0274 14.3201 37.0274C 14.3201 37.0274 14 34.3817 14 31.735L 14 29.2538C 14 26.6081 14.3201 23.9614 14.3201 23.9614C 14.3201 23.9614 14.6321 21.7081 15.5911 20.7158C 16.6899 19.5403 17.9067 19.4203 18.594 19.3526C 18.6685 19.3453 18.7368 19.3385 18.7981 19.3311C 23.2759 19 29.9929 19 29.9929 19L 30.0071 19C 30.0071 19 36.7241 19 41.2019 19.3311C 41.2632 19.3385 41.3315 19.3453 41.406 19.3526C 42.0928 19.4204 43.3101 19.5405 44.408 20.7158Z"/>
<path id="path1_fill" fill-rule="evenodd" d="M 0.001 9.18794L 0 0L 8.646 4.60981L 0.001 9.18794Z"/>
</defs>
</svg>
