<svg width="390" height="304" viewBox="0 0 390 304" version="1.1" xmlns="http://www.w3.org/2000/svg" xmlns:xlink="http://www.w3.org/1999/xlink" xmlns:figma="http://www.figma.com/figma/ns">
<title>&#208;&#148;&#208;&#176;&#208;&#188;&#208;&#176;</title>
<desc>Created using Figma</desc>
<g id="Canvas" transform="translate(-817 -140)" figma:type="canvas">
<g id="&#208;&#148;&#208;&#176;&#208;&#188;&#208;&#176;" figma:type="frame">
<g id="&#208;&#162;&#208;&#181;&#208;&#189;&#209;&#140;" filter="url(#filter0_f)" figma:type="vector">
<use xlink:href="#path0_fill" transform="matrix(0.772625 0.634862 -0.634862 0.772625 1024.94 97.2786)" fill="#BCBCBC"/>
</g>
<g id="Rectangle 6" filter="url(#filter1_d)" figma:type="vector">
<use xlink:href="#path1_fill" transform="matrix(0.752626 0.658448 -0.658448 0.752626 1017.38 72.5668)" fill="#FFFFFF"/>
</g>
<g id="Group" figma:type="frame">
<g id="Vector" figma:type="vector">
<use xlink:href="#path2_fill" transform="matrix(0.999493 -0.0318289 0.0312412 0.999512 1009 165.508)" fill="#FF3333"/>
</g>
<g id="Vector" figma:type="vector">
<use xlink:href="#path3_fill" transform="matrix(-0.998263 0.0589222 -0.0579854 -0.998317 981.505 361.741)" fill="#FF3333"/>
</g>
</g>
<g id="Q" figma:type="vector">
<use xlink:href="#path4_fill" transform="matrix(0.99991 0.0134191 -0.0134191 0.99991 1025.26 151)"/>
</g>
<g id="Q" figma:type="vector">
<use xlink:href="#path4_fill" transform="matrix(-0.989529 0.144335 -0.144335 -0.989529 962.938 374.856)"/>
</g>
<g id="&#208;&#191;&#208;&#190;&#208;&#186;&#208;&#181;&#209;&#128;&#208;&#176;" figma:type="vector">
<use xlink:href="#path5_fill" transform="matrix(0.994926 0.100613 -0.100613 0.994926 949.997 215.699)" fill="url(#paint6_linear)"/>
<use xlink:href="#path6_fill" transform="matrix(0.994926 0.100613 -0.100613 0.994926 949.997 215.699)" fill="url(#paint7_linear)"/>
<use xlink:href="#path7_fill" transform="matrix(0.994926 0.100613 -0.100613 0.994926 949.997 215.699)" fill="url(#paint8_linear)"/>
<use xlink:href="#path8_fill" transform="matrix(0.994926 0.100613 -0.100613 0.994926 949.997 215.699)" fill="url(#paint9_linear)"/>
<use xlink:href="#path9_fill" transform="matrix(0.994926 0.100613 -0.100613 0.994926 949.997 215.699)" fill="url(#paint10_linear)"/>
<use xlink:href="#path10_fill" transform="matrix(0.994926 0.100613 -0.100613 0.994926 949.997 215.699)" fill="url(#paint11_linear)"/>
</g>
</g>
</g>
<defs>
<filter id="filter0_f" filterUnits="userSpaceOnUse" x="817" y="141" width="390" height="303" color-interpolation-filters="sRGB">
<feFlood flood-opacity="0" result="BackgroundImageFix"/>
<feBlend mode="normal" in="SourceGraphic" in2="BackgroundImageFix" result="shape"/>
<desc>type="foregroundBlur" size="25"</desc>
<feGaussianBlur stdDeviation="12.5" result="effect1_foregroundBlur"/>
</filter>
<filter id="filter1_d" filterUnits="userSpaceOnUse" x="827" y="140" width="343" height="252" color-interpolation-filters="sRGB">
<feFlood flood-opacity="0" result="BackgroundImageFix"/>
<desc>type="dropShadow" x="0" y="0" size="1" spread="0" color="0,0,0,0.25" blend="normal"</desc>
<feColorMatrix in="SourceAlpha" type="matrix" values="0 0 0 0 0 0 0 0 0 0 0 0 0 0 0 0 0 0 255 0"/>
<feOffset dx="0" dy="0"/>
<feGaussianBlur stdDeviation="0.5"/>
<feColorMatrix type="matrix" values="0 0 0 0 0 0 0 0 0 0 0 0 0 0 0 0 0 0 0.25 0"/>
<feBlend mode="normal" in2="BackgroundImageFix" result="effect1_dropShadow"/>
<feBlend mode="normal" in="SourceGraphic" in2="effect1_dropShadow" result="shape"/>
</filter>
<linearGradient id="paint6_linear" x1="0" y1="0" x2="1" y2="0" gradientUnits="userSpaceOnUse" gradientTransform="matrix(6.72055e-15 62.2732 -109.755 3.81313e-15 109.755 -3.81313e-15)">
<stop offset="0.0277778" stop-color="#595959"/>
<stop offset="1" stop-color="#333333"/>
</linearGradient>
<linearGradient id="paint7_linear" x1="0" y1="0" x2="1" y2="0" gradientUnits="userSpaceOnUse" gradientTransform="matrix(6.72055e-15 62.2732 -109.755 3.81313e-15 109.755 -3.81313e-15)">
<stop offset="0.0277778" stop-color="#595959"/>
<stop offset="1" stop-color="#333333"/>
</linearGradient>
<linearGradient id="paint8_linear" x1="0" y1="0" x2="1" y2="0" gradientUnits="userSpaceOnUse" gradientTransform="matrix(6.72055e-15 62.2732 -109.755 3.81313e-15 109.755 -3.81313e-15)">
<stop offset="0.0277778" stop-color="#595959"/>
<stop offset="1" stop-color="#333333"/>
</linearGradient>
<linearGradient id="paint9_linear" x1="0" y1="0" x2="1" y2="0" gradientUnits="userSpaceOnUse" gradientTransform="matrix(6.72055e-15 62.2732 -109.755 3.81313e-15 109.755 -3.81313e-15)">
<stop offset="0.0277778" stop-color="#595959"/>
<stop offset="1" stop-color="#333333"/>
</linearGradient>
<linearGradient id="paint10_linear" x1="0" y1="0" x2="1" y2="0" gradientUnits="userSpaceOnUse" gradientTransform="matrix(6.72055e-15 62.2732 -109.755 3.81313e-15 109.755 -3.81313e-15)">
<stop offset="0.0277778" stop-color="#595959"/>
<stop offset="1" stop-color="#333333"/>
</linearGradient>
<linearGradient id="paint11_linear" x1="0" y1="0" x2="1" y2="0" gradientUnits="userSpaceOnUse" gradientTransform="matrix(6.72055e-15 62.2732 -109.755 3.81313e-15 109.755 -3.81313e-15)">
<stop offset="0.0277778" stop-color="#595959"/>
<stop offset="1" stop-color="#333333"/>
</linearGradient>
<path id="path0_fill" d="M 55.7126 46.2376C 56.5237 42.559 59.3332 39.6484 62.9807 38.7076L 198.021 3.88009C 205.065 2.06337 211.63 8.13665 210.366 15.3006L 164.173 277.131C 163.387 281.589 159.704 284.962 155.195 285.356L 13.5681 297.725C 6.84208 298.313 1.47885 292.203 2.93263 285.61L 55.7126 46.2376Z"/>
<path id="path1_fill" d="M 55.457 46.0572C 56.2681 42.3787 59.0775 39.468 62.7251 38.5273L 197.066 3.88009C 204.11 2.06337 210.675 8.13665 209.411 15.3006L 163.443 275.855C 162.657 280.313 158.974 283.686 154.465 284.08L 13.5681 296.386C 6.84208 296.973 1.47885 290.864 2.93263 284.27L 55.457 46.0572Z"/>
<path id="path2_fill" d="M 0.315011 11.224C 5.91303 12.1576 9.71211 11.912 12.1666 11.3774C 15.0184 10.724 16.7188 8.45453 15.6414 6.37707C 14.3737 3.90454 10.6752 4.23176 10.6752 4.23176C 10.6752 4.23176 11.4303 1.51588 8.24513 0.374809C 5.54892 -0.610112 2.33904 0.43443 1.1979 2.47603C 0.252899 4.23568 -0.426656 7.01281 0.315011 11.224Z"/>
<path id="path3_fill" d="M 0.412122 12.3636C 7.7359 13.392 12.7062 13.1215 15.9173 12.5326C 19.6483 11.8129 21.8729 9.31296 20.4634 7.02457C 18.8048 4.30098 13.9662 4.66144 13.9662 4.66144C 13.9662 4.66144 14.954 1.6698 10.7869 0.412865C 7.25954 -0.672059 3.06012 0.478539 1.56719 2.72744C 0.330863 4.66575 -0.558185 7.72485 0.412122 12.3636Z"/>
<path id="path4_fill" d="M 2.76245 11.7942C 0.811774 10.3788 -0.105816 8.86565 0.00968485 7.25473C 0.125186 5.64381 1.26094 4.05617 3.41696 2.49181C 5.59864 0.90882 7.79315 0.0800805 10.0005 0.00558701C 12.2079 -0.0689064 14.2869 0.601535 16.2375 2.01691C 18.1882 3.43229 19.1058 4.94543 18.9903 6.55636C 18.8748 8.16728 17.7391 9.75492 15.583 11.3193C 13.966 12.4926 12.349 13.2468 10.732 13.582C 9.115 13.9172 7.54932 13.866 6.03498 13.4284C 5.02114 14.4527 4.43401 15.2511 4.27359 15.8238C 4.11317 16.3965 4.26396 16.8504 4.72597 17.1856C 5.22647 17.5488 5.71093 17.7839 6.17935 17.891C 6.64777 17.9981 7.14507 18.0423 7.67124 18.0237C 8.19741 18.0051 8.60166 17.9678 8.884 17.912C 8.95458 17.898 9.01554 17.891 9.06687 17.891C 9.12462 17.8957 9.17596 17.9143 9.22087 17.9469C 9.27862 17.9981 9.29146 18.0865 9.25937 18.2123C 9.22729 18.3473 9.17916 18.4381 9.115 18.4846L 8.884 18.5824C 7.80599 18.9735 6.85632 19.0899 6.03498 18.9316C 5.21364 18.7733 4.44363 18.4334 3.72496 17.912C 2.80095 17.2415 2.38387 16.4686 2.4737 15.5933C 2.56354 14.7274 3.12821 13.7543 4.16771 12.6741C 3.71854 12.4413 3.25012 12.148 2.76245 11.7942ZM 7.05523 12.283C 8.09474 12.3668 9.18879 12.2062 10.3374 11.8012C 11.486 11.3961 12.6185 10.7885 13.735 9.9784C 14.89 9.14035 15.7499 8.28367 16.3145 7.40837C 16.8792 6.53308 17.0653 5.69968 16.8728 4.90819C 16.6803 4.11669 16.1349 3.39504 15.2365 2.74322C 14.3382 2.0914 13.3436 1.69566 12.2528 1.55598C 11.1619 1.41631 10.0133 1.55133 8.807 1.96104C 7.60065 2.37075 6.41998 2.99464 5.26497 3.83269C 4.26396 4.559 3.49717 5.28298 2.96458 6.00464C 2.43199 6.72629 2.14003 7.37578 2.0887 7.95311C 2.98704 7.82274 3.82442 7.8437 4.60084 8.01596C 5.37726 8.18823 6.07348 8.49784 6.68948 8.9448C 7.43382 9.48488 7.79957 10.0436 7.78674 10.6209C 7.78674 11.1982 7.5429 11.7523 7.05523 12.283ZM 3.76346 11.0679C 4.15488 11.3519 4.55913 11.5847 4.97622 11.7662C 5.95156 10.7513 6.18898 10.0529 5.68847 9.67111C 4.8928 9.13104 3.76988 9.05189 2.3197 9.43367C 2.57637 10.011 3.05762 10.5557 3.76346 11.0679Z"/>
<path id="path5_fill" d="M 23.2191 4.55579L 28.1442 6.97722L 9.25913 21.5268L 13.672 23.6964L 35.7045 6.7219L 22.0325 0L 0 16.9745L 4.33406 19.1054L 23.2191 4.55579Z"/>
<path id="path6_fill" d="M 37.759 14.1276C 39.3328 12.9151 40.7976 12.8806 42.1766 13.5586C 43.5556 14.2366 43.8244 15.1235 42.2507 16.3359L 30.3531 25.5022C 28.7794 26.7146 27.3145 26.7492 25.9355 26.0712C 24.5565 25.3932 24.2877 24.5063 25.8614 23.2938L 37.759 14.1276ZM 21.7477 20.9932C 18.2225 23.7091 18.5327 26.404 22.788 28.4961C 27.0433 30.5882 31.3823 30.1792 34.9075 27.4633L 46.3644 18.6365C 49.8896 15.9206 49.5794 13.2257 45.3241 11.1336C 41.0689 9.04151 36.7298 9.45054 33.2046 12.1665L 21.7477 20.9932Z"/>
<path id="path7_fill" d="M 42.3258 37.7841L 46.778 39.9731L 52.9621 27.6006L 68.8106 22.9986L 64.4765 20.8678L 49.2029 25.4743L 58.8028 18.0783L 54.4688 15.9474L 32.4362 32.9219L 36.7703 35.0528L 43.5374 29.8392L 46.8914 28.9458L 42.3258 37.7841Z"/>
<path id="path8_fill" d="M 71.9696 28.5242L 79.4557 32.2048L 82.6032 29.7799L 70.7831 23.9684L 48.7505 40.9429L 60.5707 46.7543L 63.7182 44.3294L 56.2321 40.6488L 62.6845 35.6777L 68.6339 38.6028L 71.7815 36.1779L 65.832 33.2528L 71.9696 28.5242Z"/>
<path id="path9_fill" d="M 91.6718 34.2385L 85.2889 31.1003L 63.2564 48.0748L 67.5904 50.2056L 75.8684 43.8281L 77.9172 44.8354C 82.2513 46.9663 86.2989 46.5331 89.8241 43.8172L 92.6883 41.6105C 96.2135 38.8946 96.0059 36.3693 91.6718 34.2385ZM 88.5243 36.6634C 89.9033 37.3414 90.1483 38.0974 88.5746 39.3099L 85.2697 41.8561C 83.696 43.0685 82.4437 43.0885 81.0647 42.4105L 79.0159 41.4032L 86.4755 35.6561L 88.5243 36.6634Z"/>
<path id="path10_fill" d="M 109.755 43.1291L 103.411 40.0103L 76.9659 54.8151L 80.9454 56.7717L 85.6913 54.0601L 91.0104 56.6752L 87.7617 60.1229L 92.1352 62.2732L 109.755 43.1291ZM 102.463 44.47L 93.4095 54.081L 89.2331 52.0276L 102.463 44.47Z"/>
</defs>
</svg>
