<svg width="63" height="8" viewBox="0 0 63 8" version="1.1" xmlns="http://www.w3.org/2000/svg" xmlns:xlink="http://www.w3.org/1999/xlink" xmlns:figma="http://www.figma.com/figma/ns">
<title>Arrow</title>
<desc>Created using Figma</desc>
<g id="Canvas" transform="translate(-1102 -1618)" figma:type="canvas">
<rect x="1102" y="1618" width="63" height="8" fill="#E5E5E5"/>
<g id="1920" figma:type="frame">
<mask id="mask0_alpha" mask-type="alpha">
<path d="M -449 699L 1451 699L 1451 1699L -449 1699L -449 699Z" fill="#FFFFFF"/>
</mask>
<g id="2. &#208;&#167;&#209;&#130;&#208;&#190; &#209;&#130;&#208;&#176;&#208;&#186;&#208;&#190;&#208;&#181; AWS" mask="url(#mask0_alpha)" figma:type="frame">
<path d="M -449 699L 1451 699L 1451 1699L -449 1699L -449 699Z" fill="#FFFFFF"/>
<g id="&#208;&#148;&#208;&#190;&#208;&#191; &#209;&#141;&#208;&#187;&#208;&#181;&#208;&#188;&#208;&#181;&#208;&#189;&#209;&#130;&#209;&#139;" figma:type="instance">
<g id="&#208;&#151;&#208;&#176;&#208;&#191;&#208;&#184;&#209;&#129;&#209;&#140; &#208;&#189;&#208;&#176; &#208;&#190;&#208;&#177;&#209;&#131;&#209;&#135;&#208;&#181;&#208;&#189;&#208;&#184;&#208;&#181;" figma:type="frame">
<g id="Arrow" figma:type="vector">
<use xlink:href="#path0_stroke" transform="translate(1102 1622)" fill="#666666"/>
</g>
</g>
</g>
</g>
</g>
</g>
<defs>
<path id="path0_stroke" d="M 62.3536 0.353553C 62.5488 0.158291 62.5488 -0.158291 62.3536 -0.353553L 59.1716 -3.53553C 58.9763 -3.7308 58.6597 -3.7308 58.4645 -3.53553C 58.2692 -3.34027 58.2692 -3.02369 58.4645 -2.82843L 61.2929 0L 58.4645 2.82843C 58.2692 3.02369 58.2692 3.34027 58.4645 3.53553C 58.6597 3.7308 58.9763 3.7308 59.1716 3.53553L 62.3536 0.353553ZM 0 0.5L 62 0.5L 62 -0.5L 0 -0.5L 0 0.5Z"/>
</defs>
</svg>
