<svg width="20" height="23" viewBox="0 0 20 23" version="1.1" xmlns="http://www.w3.org/2000/svg" xmlns:xlink="http://www.w3.org/1999/xlink" xmlns:figma="http://www.figma.com/figma/ns">
<title>Clubs-b</title>
<desc>Created using Figma</desc>
<g id="Canvas" transform="translate(91 -4917)" figma:type="canvas">
<g id="Clubs-b" figma:type="vector">
<use xlink:href="#path0_fill" transform="translate(-91 4917)"/>
</g>
</g>
<defs>
<path id="path0_fill" d="M 19.0756 9.43845C 18.1318 7.65011 15.9957 6.85529 14.0583 7.4514C 13.7106 7.55076 13.2635 7.69978 12.8661 7.84881C 13.3629 7.054 13.7106 6.2095 13.9093 5.51404C 14.5054 3.57667 13.7106 1.4406 11.9222 0.49676C 11.3261 0.198704 10.7797 -7.40231e-10 10.0842 -7.40231e-10C 9.38877 -7.40231e-10 8.6933 0.198704 8.14687 0.49676C 6.35853 1.4406 5.56371 3.57667 6.15983 5.51404C 6.35853 6.2095 6.70626 7.15335 7.10367 7.94816C 6.50756 7.69978 5.96112 7.50108 5.51404 7.35205C 3.57667 6.75594 1.4406 7.55076 0.49676 9.33909C 0.198704 9.93521 0 10.581 0 11.2765C 0 11.9719 0.149028 12.5184 0.49676 13.1145C 1.4406 14.9028 3.57667 15.6976 5.51404 15.1015C 6.30886 14.8531 7.40173 14.406 8.2959 13.7603L 7.2527 23L 12.3693 23L 11.3261 13.7603C 12.2203 14.406 13.3132 14.8531 14.108 15.1015C 16.0454 15.6976 18.1814 14.9028 19.1253 13.1145C 19.4233 12.5184 19.622 11.9719 19.622 11.2765C 19.5724 10.6803 19.3737 10.0346 19.0756 9.43845Z"/>
</defs>
</svg>
