<svg width="14" height="24" viewBox="0 0 14 24" version="1.1" xmlns="http://www.w3.org/2000/svg" xmlns:xlink="http://www.w3.org/1999/xlink" xmlns:figma="http://www.figma.com/figma/ns">
<title>Vector</title>
<desc>Created using Figma</desc>
<g id="Canvas" transform="translate(-611 -5999)" figma:type="canvas">
<g id="Vector" figma:type="vector">
<use xlink:href="#path0_fill" transform="translate(611 5999)" fill="#3B5998"/>
</g>
</g>
<defs>
<path id="path0_fill" d="M 12.7029 0.0049936L 9.53685 0C 5.97987 0 3.68119 2.31828 3.68119 5.90643L 3.68119 8.62969L 0.497835 8.62969C 0.222756 8.62969 -8.52653e-08 8.84891 -8.52653e-08 9.11932L -8.52653e-08 13.065C -8.52653e-08 13.3354 0.22301 13.5544 0.497835 13.5544L 3.68119 13.5544L 3.68119 23.5106C 3.68119 23.781 3.90394 24 4.17902 24L 8.33239 24C 8.60747 24 8.83022 23.7808 8.83022 23.5106L 8.83022 13.5544L 12.5523 13.5544C 12.8274 13.5544 13.0501 13.3354 13.0501 13.065L 13.0517 9.11932C 13.0517 8.98948 12.9991 8.86514 12.9059 8.77326C 12.8127 8.68138 12.6857 8.62969 12.5536 8.62969L 8.83022 8.62969L 8.83022 6.32115C 8.83022 5.21157 9.09921 4.64829 10.5696 4.64829L 12.7024 4.64755C 12.9772 4.64755 13.2 4.42833 13.2 4.15817L 13.2 0.494367C 13.2 0.224462 12.9775 0.00549296 12.7029 0.0049936Z"/>
</defs>
</svg>
