<svg width="16" height="12" viewBox="0 0 16 12" version="1.1" xmlns="http://www.w3.org/2000/svg" xmlns:xlink="http://www.w3.org/1999/xlink" xmlns:figma="http://www.figma.com/figma/ns">
<title>Mail</title>
<desc>Created using Figma</desc>
<g id="Canvas" transform="translate(-379 -5860)" figma:type="canvas">
<g id="Mail" figma:type="frame">
<g id="Vector" figma:type="vector">
<use xlink:href="#path0_fill" transform="translate(379 5860)" fill="#333333"/>
</g>
<g id="Vector" figma:type="vector">
<use xlink:href="#path1_fill" transform="translate(379 5863.87)" fill="#333333"/>
</g>
</g>
</g>
<defs>
<path id="path0_fill" d="M 1.53568 3.69888C 1.73808 3.83521 2.34818 4.24011 3.36601 4.91339C 4.38388 5.58666 5.16364 6.10506 5.70531 6.46862C 5.76482 6.50847 5.89126 6.5951 6.08468 6.72863C 6.27814 6.86224 6.43888 6.97022 6.56678 7.05258C 6.69478 7.13491 6.84952 7.22727 7.03115 7.32951C 7.21272 7.43166 7.38388 7.5085 7.54459 7.55937C 7.70533 7.61065 7.85413 7.63606 7.99101 7.63606L 7.99998 7.63606L 8.00899 7.63606C 8.14587 7.63606 8.29473 7.61062 8.45547 7.55937C 8.61612 7.5085 8.78743 7.43157 8.96885 7.32951C 9.15035 7.22715 9.30509 7.13488 9.43309 7.05258C 9.56109 6.97022 9.72171 6.86224 9.91522 6.72863C 10.1086 6.59498 10.2352 6.50847 10.2947 6.46862C 10.8422 6.10506 12.2352 5.18172 14.4732 3.6987C 14.9077 3.40905 15.2707 3.05954 15.5624 2.65043C 15.8542 2.24149 16 1.8125 16 1.36368C 16 0.988624 15.8585 0.66757 15.5758 0.400548C 15.293 0.133466 14.9581 -9.10997e-09 14.5714 -9.10997e-09L 1.42851 -9.10997e-09C 0.970207 -9.10997e-09 0.617512 0.147706 0.370489 0.443116C 0.123496 0.738587 0 1.10791 0 1.55106C 0 1.90901 0.163744 2.2969 0.491076 2.71449C 0.818377 3.13211 1.16669 3.46027 1.53568 3.69888Z"/>
<path id="path1_fill" d="M 15.107 0.741453C 13.1548 2.00271 11.6725 2.98292 10.6607 3.68186C 10.3215 3.9204 10.0462 4.10662 9.83485 4.24005C 9.62348 4.37358 9.34237 4.50994 8.99111 4.64908C 8.63998 4.78843 8.31274 4.85789 8.00912 4.85789L 8.00002 4.85789L 7.99104 4.85789C 7.68748 4.85789 7.36005 4.78843 7.00892 4.64908C 6.65779 4.50994 6.37649 4.37358 6.16518 4.24005C 5.95393 4.10662 5.67861 3.9204 5.33936 3.68186C 4.53574 3.1194 3.0566 2.13913 0.901876 0.741453C 0.562504 0.525686 0.26191 0.278366 0 -1.05676e-07L 0 6.7669C 0 7.14213 0.139821 7.46301 0.419618 7.73006C 0.699353 7.9972 1.03572 8.13072 1.4286 8.13072L 14.5715 8.13072C 14.9643 8.13072 15.3006 7.9972 15.5804 7.73006C 15.8602 7.46292 16 7.14216 16 6.7669L 16 -1.05676e-07C 15.744 0.272604 15.4465 0.519924 15.107 0.741453Z"/>
</defs>
</svg>
