<svg width="20" height="30" viewBox="0 0 20 30" version="1.1" xmlns="http://www.w3.org/2000/svg" xmlns:xlink="http://www.w3.org/1999/xlink" xmlns:figma="http://www.figma.com/figma/ns">
<title>&#208;&#161;&#208;&#186;&#209;&#128;&#208;&#190;&#208;&#187; &#208;&#178;&#208;&#189;&#208;&#184;&#208;&#183;</title>
<desc>Created using Figma</desc>
<g id="Canvas" transform="translate(-491 -3923)" figma:type="canvas">
<rect x="491" y="3923" width="20" height="30" fill="#E5E5E5"/>
<g id="1920" figma:type="frame">
<mask id="mask0_alpha" mask-type="alpha">
<path d="M -454 3012L 1446 3012L 1446 4012L -454 4012L -454 3012Z" fill="#FFFFFF"/>
</mask>
<g id="4. &#208;&#161;&#209;&#130;&#209;&#128;&#208;&#176;&#209;&#130;&#208;&#181;&#208;&#179;&#208;&#184;&#209;&#143; &#208;&#186;&#208;&#190;&#209;&#130;&#208;&#190;&#209;&#128;&#208;&#176;&#209;&#143; &#209;&#128;&#208;&#181;&#208;&#176;&#208;&#187;&#209;&#140;&#208;&#189;&#208;&#190; &#209;&#128;&#208;&#176;&#208;&#177;&#208;&#190;&#209;&#130;&#208;&#176;&#208;&#181;&#209;&#130;" mask="url(#mask0_alpha)" figma:type="frame">
<path d="M -454 3012L 1446 3012L 1446 4012L -454 4012L -454 3012Z" fill="#FFFFFF"/>
<g id="&#208;&#148;&#208;&#190;&#208;&#191; &#209;&#141;&#208;&#187;&#208;&#181;&#208;&#188;&#208;&#181;&#208;&#189;&#209;&#130;&#209;&#139;" figma:type="instance">
<g id="&#208;&#161;&#208;&#186;&#209;&#128;&#208;&#190;&#208;&#187;&#208;&#187;" figma:type="frame">
<g id="&#208;&#161;&#208;&#186;&#209;&#128;&#208;&#190;&#208;&#187; &#208;&#178;&#208;&#189;&#208;&#184;&#208;&#183;" figma:type="frame">
<g id="Vector" figma:type="vector">
<use xlink:href="#path0_stroke" transform="translate(492 3924)" fill="#CCCCCC"/>
</g>
<g id="Vector" figma:type="vector">
<use xlink:href="#path1_stroke" transform="translate(501 3932.8)" fill="#CCCCCC"/>
</g>
</g>
</g>
</g>
</g>
</g>
</g>
<defs>
<path id="path0_stroke" d="M 11.5714 27L 6.42857 27L 6.42857 29L 11.5714 29L 11.5714 27ZM 6.42857 27C 3.43555 27 1 24.5745 1 21.6364L -1 21.6364C -1 25.6982 2.35017 29 6.42857 29L 6.42857 27ZM 1 21.6364L 1 6.36364L -1 6.36364L -1 21.6364L 1 21.6364ZM 1 6.36364C 1 3.42547 3.43555 1 6.42857 1L 6.42857 -1C 2.35017 -1 -1 2.3018 -1 6.36364L 1 6.36364ZM 6.42857 1L 11.5714 1L 11.5714 -1L 6.42857 -1L 6.42857 1ZM 11.5714 1C 14.5645 1 17 3.42547 17 6.36364L 19 6.36364C 19 2.3018 15.6498 -1 11.5714 -1L 11.5714 1ZM 17 6.36364L 17 21.6364L 19 21.6364L 19 6.36364L 17 6.36364ZM 17 21.6364C 17 24.5745 14.5645 27 11.5714 27L 11.5714 29C 15.6498 29 19 25.6982 19 21.6364L 17 21.6364Z"/>
<path id="path1_stroke" d="M 1 0L 1 -1L -1 -1L -1 0L 1 0ZM -1 2L -1 3L 1 3L 1 2L -1 2ZM -1 0L -1 2L 1 2L 1 0L -1 0Z"/>
</defs>
</svg>
