<svg width="70" height="82" viewBox="0 0 70 82" version="1.1" xmlns="http://www.w3.org/2000/svg" xmlns:xlink="http://www.w3.org/1999/xlink" xmlns:figma="http://www.figma.com/figma/ns">
<title>&#208;&#155;&#208;&#184;&#209;&#135;&#208;&#189;&#209;&#139;&#208;&#185; &#208;&#188;&#208;&#181;&#208;&#189;&#208;&#181;&#208;&#180;&#208;&#182;&#208;&#181;&#209;&#128;</title>
<desc>Created using Figma</desc>
<g id="Canvas" transform="translate(398 -3630)" figma:type="canvas">
<g id="&#208;&#155;&#208;&#184;&#209;&#135;&#208;&#189;&#209;&#139;&#208;&#185; &#208;&#188;&#208;&#181;&#208;&#189;&#208;&#181;&#208;&#180;&#208;&#182;&#208;&#181;&#209;&#128;" figma:type="frame">
<g id="Vector" figma:type="vector">
<use xlink:href="#path0_fill" transform="translate(-393.225 3630)" fill="#5A4146"/>
</g>
<g id="Vector" figma:type="vector">
<use xlink:href="#path1_fill" transform="translate(-398 3684.5)" fill="#E6AF78"/>
</g>
<g id="Vector" figma:type="vector">
<use xlink:href="#path2_fill" transform="translate(-377.063 3684.51)" fill="#D29B6E"/>
</g>
<g id="Vector" figma:type="vector">
<use xlink:href="#path3_fill" transform="translate(-398 3693.97)" fill="#E4EAF6"/>
</g>
<g id="Group" figma:type="frame">
<g id="Vector" figma:type="vector">
<use xlink:href="#path4_fill" transform="translate(-398 3698.56)" fill="#D7DEED"/>
</g>
<g id="Vector" figma:type="vector">
<use xlink:href="#path5_fill" transform="translate(-340.757 3698.56)" fill="#D7DEED"/>
</g>
<g id="Vector" figma:type="vector">
<use xlink:href="#path6_fill" transform="translate(-383.315 3693.97)" fill="#D7DEED"/>
</g>
</g>
<g id="Vector" figma:type="vector">
<use xlink:href="#path7_fill" transform="translate(-388.468 3663.58)" fill="#FF5050"/>
</g>
<g id="Vector" figma:type="vector">
<use xlink:href="#path8_fill" transform="translate(-385.279 3663.56)" fill="#FF0000"/>
</g>
<g id="Vector" figma:type="vector">
<use xlink:href="#path9_fill" transform="translate(-343.532 3663.58)" fill="#FF5050"/>
</g>
<g id="Vector" figma:type="vector">
<use xlink:href="#path10_fill" transform="translate(-343.55 3663.56)" fill="#FF1515"/>
</g>
<g id="Vector" figma:type="vector">
<use xlink:href="#path11_fill" transform="translate(-383.694 3649.17)" fill="#F0C087"/>
</g>
<g id="Vector" figma:type="vector">
<use xlink:href="#path12_fill" transform="translate(-383.694 3649.17)" fill="#E6AF78"/>
</g>
<g id="Vector" figma:type="vector">
<use xlink:href="#path13_fill" transform="translate(-385.279 3647.58)" fill="#5A4146"/>
</g>
<g id="Vector" figma:type="vector">
<use xlink:href="#path14_fill" transform="translate(-359.225 3676.19)" fill="#FF3333"/>
</g>
<g id="Vector" figma:type="vector">
<use xlink:href="#path15_fill" transform="translate(-364.595 3681.15)" fill="#5B5D6E"/>
</g>
</g>
</g>
<defs>
<path id="path0_fill" d="M 60.4324 57.127C 60.4504 58.3941 59.6937 59.5345 58.5405 60.0775C 51.3333 63.4443 41.2973 65.5259 30.2162 65.5259C 19.1351 65.5259 9.0991 63.4262 1.89189 60.0594C 0.738739 59.5164 0 58.376 0 57.1089C 0.234234 26.6267 5.78378 0 30.2162 0C 54.6486 0 60.1982 26.6267 60.4324 57.127Z"/>
<path id="path1_fill" d="M 46.1261 5.53953L 46.1261 7.91817e-07L 23.8559 7.91817e-07L 23.8559 5.53953C 23.8559 7.01846 22.5405 8.32875 20.5946 8.79578L 5.44144 12.4283C 2.1982 13.2196 0 15.4121 0 17.877L 0 25.2068C 0 26.4782 1.42342 27.503 3.18919 27.503L 66.8108 27.503C 68.5766 27.503 70 26.4782 70 25.2068L 70 17.877C 70 15.4121 67.8018 13.2196 64.5586 12.4412L 49.4054 8.80876C 47.4414 8.34172 46.1261 7.01846 46.1261 5.53953Z"/>
<path id="path2_fill" d="M 2.91892 5.52655C 2.91892 6.91468 1.74775 8.14713 -5.49866e-07 8.67903C 17.8378 10.8715 25.1892 1.71245 25.1892 1.71245L 25.1892 1.58363e-06L 2.91892 1.58363e-06L 2.91892 5.52655Z"/>
<path id="path3_fill" d="M 64.5405 2.97085L 52.1622 7.91817e-07C 46.2703 5.76007 39.3874 8.97741 34.991 10.0023C 30.5946 8.97741 23.7117 5.76007 17.8198 7.91817e-07L 5.44144 2.97085C 2.1982 3.74924 0 5.94169 0 8.40659L 0 15.7364C 0 17.0078 1.42342 18.0326 3.18919 18.0326L 66.8108 18.0326C 68.5766 18.0326 70 17.0078 70 15.7364L 70 8.40659C 69.982 5.94169 67.8018 3.74924 64.5405 2.97085Z"/>
<path id="path4_fill" d="M 10.8649 6.35683L 2.03604 0C 0.756757 1.03785 0 2.37408 0 3.8141L 0 11.1439C 0 12.4153 1.42342 13.4402 3.18919 13.4402L 12.7387 13.4402L 12.7387 9.61309C 12.7207 8.38064 12.0541 7.21306 10.8649 6.35683Z"/>
<path id="path5_fill" d="M 1.87388 6.35683L 10.7027 0C 11.982 1.02488 12.7387 2.36111 12.7387 3.80113L 12.7387 11.1309C 12.7387 12.4023 11.3153 13.4272 9.54955 13.4272L 2.19947e-06 13.4272L 2.19947e-06 9.60012C 0.0180202 8.38064 0.684686 7.21306 1.87388 6.35683Z"/>
<path id="path6_fill" d="M 0.576576 1.36218C 6.97297 7.60226 14.4505 11.0401 19.3153 12.1818L 20.3063 12.4153L 21.2973 12.1818C 26.1622 11.0401 33.6577 7.60226 40.036 1.36218L 40.6126 0.752441L 37.4775 7.91817e-07C 31.5856 5.76007 24.7027 8.97741 20.3063 10.0023C 15.9099 8.97741 9.02703 5.76007 3.13514 7.91817e-07L 0 0.752441L 0.576576 1.36218Z"/>
<path id="path7_fill" d="M 5.04505 0L 3.18919 0C 1.42342 0 2.74933e-07 1.42999 2.74933e-07 3.20389L 2.74933e-07 9.50307C 2.74933e-07 11.2951 1.45946 12.7251 3.24324 12.707L 5.98198 12.6527L 5.04505 0Z"/>
<path id="path8_fill" d="M 0.0180175 -1.1048e-06C 0.0180175 -1.1048e-06 -5.50403e-07 -1.1048e-06 0.0180175 -1.1048e-06L -2.74933e-07 12.707C 0.0180177 12.707 0.036036 12.707 0.0720721 12.707L 2.81081 12.6527L 1.85586 -1.1048e-06L 0.0180175 -1.1048e-06Z"/>
<path id="path9_fill" d="M 0.936937 0L 2.79279 0C 4.55856 0 5.98198 1.42999 5.98198 3.20389L 5.98198 9.50307C 5.98198 11.2951 4.52252 12.7251 2.73874 12.707L -2.19947e-06 12.6527L 0.936937 0Z"/>
<path id="path10_fill" d="M 2.79279 -1.1048e-06C 2.81081 -1.1048e-06 2.81081 -1.1048e-06 2.79279 -1.1048e-06L 2.81081 12.707C 2.79279 12.707 2.77477 12.707 2.73874 12.707L 2.19947e-06 12.6527L 0.954955 -1.1048e-06L 2.79279 -1.1048e-06Z"/>
<path id="path11_fill" d="M 2.74933e-07 2.76201e-07L 2.74933e-07 6.89651C 2.74933e-07 9.75648 0.108108 12.6165 0.324324 15.4764L 1.24324 27.4412C 1.45946 30.3012 2.93694 32.9078 5.27928 34.555L 14.8829 41.3067C 16.5766 42.5013 18.5946 43.1349 20.6667 43.1349C 22.7387 43.1349 24.7568 42.5013 26.4505 41.3067L 36.0541 34.555C 38.3964 32.9078 39.8739 30.3012 40.0901 27.4412L 41.009 15.4764C 41.2252 12.6165 41.3333 9.75648 41.3333 6.89651L 41.3333 2.76201e-07L 2.74933e-07 2.76201e-07Z"/>
<path id="path12_fill" d="M 41.2432 2.76201e-07L 2.74933e-07 2.76201e-07L 2.74933e-07 6.89651C 2.74933e-07 7.78347 0.0360355 8.67042 0.0540535 9.55737C 0.0720715 10.6253 0.126126 11.6933 0.18018 12.7613C 0.234235 13.6663 0.270271 14.5714 0.342343 15.4764L 1.26126 27.4412C 1.47748 30.3012 2.95496 32.9078 5.2973 34.555L 14.9009 41.3067C 16.5946 42.5013 18.6126 43.1349 20.6847 43.1349C 18.1261 43.1349 15.3333 38.7182 13.5676 35.3695C 12.4144 33.1612 11.7838 30.7175 11.7477 28.2196L 11.4775 13.7568C 11.4595 12.5984 12.2883 11.6209 13.4054 11.4399C 21.9279 9.9556 28.7027 7.53005 32.5766 5.81045C 35.6396 10.915 39.6937 12.4354 40.2162 12.6165L 40.7207 12.7794L 41.1892 12.7794C 41.2432 11.7114 41.2793 10.6434 41.3153 9.57547L 41.2432 2.76201e-07Z"/>
<path id="path13_fill" d="M -2.74933e-07 -2.76201e-07L -2.74933e-07 11.1865C 18.8468 11.1865 33.1892 4.59768 35.5856 3.13149C 38.1622 9.57547 42.8288 11.1865 42.8288 11.1865L 44.5405 11.1865L 44.5405 -2.76201e-07L -2.74933e-07 -2.76201e-07Z"/>
<path id="path14_fill" d="M 18.4144 0.0724055L 15.6937 0.0181016C 14.4865 2.22643 10.8468 5.86475 -5.49866e-07 5.86475L -5.49866e-07 9.06864C 14.4865 9.06864 18.2162 2.85997 19.1532 -5.52401e-07C 18.9189 0.0543027 18.6667 0.0905065 18.4144 0.0724055Z"/>
<path id="path15_fill" d="M 3.96396 4.77869L 2.37838 4.77869C 1.06306 4.77869 -1.09973e-06 3.71072 -1.09973e-06 2.38934C -1.09973e-06 1.06796 1.06306 1.1048e-06 2.37838 1.1048e-06L 3.96396 1.1048e-06C 5.27928 1.1048e-06 6.34234 1.06796 6.34234 2.38934C 6.36036 3.69262 5.2973 4.77869 3.96396 4.77869Z"/>
</defs>
</svg>
