<svg width="105" height="74" viewBox="0 0 105 74" version="1.1" xmlns="http://www.w3.org/2000/svg" xmlns:xlink="http://www.w3.org/1999/xlink" xmlns:figma="http://www.figma.com/figma/ns">
<title>&#208;&#162;&#208;&#181;&#209;&#129;&#209;&#130; &#208;&#176;&#209;&#131;&#208;&#180;&#208;&#184;&#209;&#136;&#208;&#189;</title>
<desc>Created using Figma</desc>
<g id="Canvas" transform="translate(421 -3092)" figma:type="canvas">
<g id="&#208;&#162;&#208;&#181;&#209;&#129;&#209;&#130; &#208;&#176;&#209;&#131;&#208;&#180;&#208;&#184;&#209;&#136;&#208;&#189;" figma:type="frame">
<g id="Vector" figma:type="vector">
<use xlink:href="#path0_fill" transform="matrix(-1 0 0 1 -334.088 3092)" fill="#EFF2FA"/>
</g>
<g id="Vector" figma:type="vector">
<use xlink:href="#path1_fill" transform="matrix(-1 0 0 1 -372.13 3101.04)" fill="#FFD782"/>
</g>
<g id="Vector" figma:type="vector">
<use xlink:href="#path2_fill" transform="matrix(-1 0 0 1 -372.13 3126.31)" fill="#FFC36E"/>
</g>
<g id="Vector" figma:type="vector">
<use xlink:href="#path3_fill" transform="matrix(-1 0 0 1 -386.608 3126.31)" fill="#C3E678"/>
</g>
<g id="Vector" figma:type="vector">
<use xlink:href="#path4_fill" transform="matrix(-1 0 0 1 -386.608 3140.75)" fill="#A5D76E"/>
</g>
<g id="Vector" figma:type="vector">
<use xlink:href="#path5_fill" transform="matrix(-1 0 0 1 -343.173 3126.31)" fill="#B4E1FA"/>
</g>
<g id="Vector" figma:type="vector">
<use xlink:href="#path6_fill" transform="matrix(-1 0 0 1 -401.087 3111.85)" fill="#9BE6D2"/>
</g>
<g id="Vector" figma:type="vector">
<use xlink:href="#path7_fill" transform="matrix(-1 0 0 1 -401.087 3133.53)" fill="#78D2BE"/>
</g>
<g id="Vector" figma:type="vector">
<use xlink:href="#path8_fill" transform="matrix(-1 0 0 1 -357.651 3119.07)" fill="#FF2C2C"/>
</g>
<g id="Vector" figma:type="vector">
<use xlink:href="#path9_fill" transform="matrix(-1 0 0 1 -357.651 3137.15)" fill="#FF7182"/>
</g>
<g id="Vector" figma:type="vector">
<use xlink:href="#path10_fill" transform="matrix(-1 0 0 1 -343.173 3140.75)" fill="#A0D2F0"/>
</g>
<g id="Vector" figma:type="vector">
<use xlink:href="#path11_fill" transform="matrix(-1 0 0 1 -337.738 3146.17)" fill="#D7DEED"/>
</g>
<g id="Vector" figma:type="vector">
<use xlink:href="#path12_fill" transform="matrix(-1 0 0 1 -330.212 3146)" fill="#E6AF78"/>
</g>
<g id="Vector" figma:type="vector">
<use xlink:href="#path13_fill" transform="matrix(-1 0 0 1 -316 3151.71)" fill="#B4E1FA"/>
</g>
<g id="Vector" figma:type="vector">
<use xlink:href="#path14_fill" transform="matrix(-1 0 0 1 -330.212 3146)" fill="#D29B6E"/>
</g>
<g id="Vector" figma:type="vector">
<use xlink:href="#path15_fill" transform="matrix(-1 0 0 1 -326.869 3126.84)" fill="#F0C087"/>
</g>
<g id="Vector" figma:type="vector">
<use xlink:href="#path16_fill" transform="matrix(-1 0 0 1 -326.869 3126.84)" fill="#E6AF78"/>
</g>
<g id="Group" figma:type="frame">
<g id="Vector" figma:type="vector">
<use xlink:href="#path17_fill" transform="matrix(-1 0 0 1 -351.95 3155.76)" fill="#A0D2F0"/>
</g>
<g id="Vector" figma:type="vector">
<use xlink:href="#path18_fill" transform="matrix(-1 0 0 1 -316 3155.76)" fill="#A0D2F0"/>
</g>
</g>
<g id="Vector" figma:type="vector">
<use xlink:href="#path19_fill" transform="matrix(-1 0 0 1 -335.626 3158.52)" fill="#5B5D6E"/>
</g>
<g id="Vector" figma:type="vector">
<use xlink:href="#path20_fill" transform="matrix(-1 0 0 1 -335.626 3156.84)" fill="#515262"/>
</g>
<g id="Group" figma:type="frame">
<g id="Vector" figma:type="vector">
<use xlink:href="#path21_fill" transform="matrix(-1 0 0 1 -327.689 3149.77)" fill="#A0D2F0"/>
</g>
<g id="Vector" figma:type="vector">
<use xlink:href="#path22_fill" transform="matrix(-1 0 0 1 -337.738 3149.77)" fill="#A0D2F0"/>
</g>
</g>
<g id="Vector" figma:type="vector">
<use xlink:href="#path23_fill" transform="matrix(-1 0 0 1 -342.783 3120.81)" fill="#785550"/>
</g>
<g id="Vector" figma:type="vector">
<use xlink:href="#path24_fill" transform="matrix(-1 0 0 1 -346.77 3135.19)" fill="#F0C087"/>
</g>
<g id="Vector" figma:type="vector">
<use xlink:href="#path25_fill" transform="matrix(-1 0 0 1 -324.273 3117.68)" fill="#694B4B"/>
</g>
<g id="Vector" figma:type="vector">
<use xlink:href="#path26_fill" transform="matrix(-1 0 0 1 -324.273 3120.67)" fill="#5A4146"/>
</g>
<g id="Vector" figma:type="vector">
<use xlink:href="#path27_fill" transform="matrix(-1 0 0 1 -325.192 3135.19)" fill="#E6AF78"/>
</g>
<g id="Vector" figma:type="vector">
<use xlink:href="#path28_fill" transform="matrix(-1 0 0 1 -341.901 3164.34)" fill="#A0D2F0"/>
</g>
</g>
</g>
<defs>
<path id="path0_fill" d="M 3.62988 64.9826L 83.2822 64.9826C 85.292 64.9826 86.9121 63.3672 86.9121 61.3634L 86.9121 3.61923C 86.9121 1.61536 85.292 0 83.2822 0L 3.62988 0C 1.62012 0 -6.25849e-07 1.61536 -6.25849e-07 3.61923L -6.25849e-07 61.3838C 0.0205072 63.3672 1.64063 64.9826 3.62988 64.9826Z"/>
<path id="path1_fill" d="M 9.04394 46.9273L 1.80469 46.9273C 0.799805 46.9273 2.5034e-06 46.1094 2.5034e-06 45.1279L 2.5034e-06 1.79939C 2.5034e-06 0.797458 0.820312 1.56003e-07 1.80469 1.56003e-07L 9.04394 1.56003e-07C 10.0488 1.56003e-07 10.8486 0.817906 10.8486 1.79939L 10.8486 45.1279C 10.8486 46.1094 10.0488 46.9273 9.04394 46.9273Z"/>
<path id="path2_fill" d="M 9.04394 21.6541L 1.80469 21.6541C 0.799805 21.6541 2.5034e-06 20.8361 2.5034e-06 19.8547L 2.5034e-06 1.79939C 2.5034e-06 0.797459 0.820312 6.24012e-07 1.80469 6.24012e-07L 9.04394 6.24012e-07C 10.0488 6.24012e-07 10.8486 0.817907 10.8486 1.79939L 10.8486 19.8547C 10.8486 20.8361 10.0488 21.6541 9.04394 21.6541Z"/>
<path id="path3_fill" d="M 9.04394 21.6541L 1.80469 21.6541C 0.799806 21.6541 -2.5034e-06 20.8361 -2.5034e-06 19.8547L -2.5034e-06 1.79939C -2.5034e-06 0.797459 0.820314 6.24012e-07 1.80469 6.24012e-07L 9.04394 6.24012e-07C 10.0488 6.24012e-07 10.8486 0.817907 10.8486 1.79939L 10.8486 19.8547C 10.8486 20.8361 10.0488 21.6541 9.04394 21.6541Z"/>
<path id="path4_fill" d="M 9.04394 7.21802L 1.80469 7.21802C 0.799806 7.21802 -2.5034e-06 6.40011 -2.5034e-06 5.41862L -2.5034e-06 1.79939C -2.5034e-06 0.797457 0.820314 -1.24802e-06 1.80469 -1.24802e-06L 9.04394 -1.24802e-06C 10.0488 -1.24802e-06 10.8486 0.817905 10.8486 1.79939L 10.8486 5.41862C 10.8486 6.40011 10.0488 7.21802 9.04394 7.21802Z"/>
<path id="path5_fill" d="M 9.04395 21.6541L 1.80469 21.6541C 0.799805 21.6541 5.82867e-15 20.8361 5.82867e-15 19.8547L 5.82867e-15 1.79939C 5.82867e-15 0.797459 0.820313 6.24012e-07 1.80469 6.24012e-07L 9.04395 6.24012e-07C 10.0488 6.24012e-07 10.8486 0.817907 10.8486 1.79939L 10.8486 19.8547C 10.8486 20.8361 10.0283 21.6541 9.04395 21.6541Z"/>
<path id="path6_fill" d="M 9.04395 36.1105L 1.80469 36.1105C 0.799807 36.1105 -1.2517e-06 35.2926 -1.2517e-06 34.3111L -1.2517e-06 1.79939C -1.2517e-06 0.797458 0.820315 -3.12006e-07 1.80469 -3.12006e-07L 9.04395 -3.12006e-07C 10.0488 -3.12006e-07 10.8486 0.817906 10.8486 1.79939L 10.8486 34.2907C 10.8691 35.2926 10.0488 36.1105 9.04395 36.1105Z"/>
<path id="path7_fill" d="M 9.04395 14.436L 1.80469 14.436C 0.799807 14.436 -1.2517e-06 13.6181 -1.2517e-06 12.6366L -1.2517e-06 1.79939C -1.2517e-06 0.797457 0.820315 1.24802e-06 1.80469 1.24802e-06L 9.04395 1.24802e-06C 10.0488 1.24802e-06 10.8486 0.817904 10.8486 1.79939L 10.8486 12.6366C 10.8691 13.6181 10.0488 14.436 9.04395 14.436Z"/>
<path id="path8_fill" d="M 9.04394 28.8925L 1.80469 28.8925C 0.799803 28.8925 1.2517e-06 28.0746 1.2517e-06 27.0931L 1.2517e-06 1.79939C 1.2517e-06 0.797457 0.820311 -1.24802e-06 1.80469 -1.24802e-06L 9.04394 -1.24802e-06C 10.0488 -1.24802e-06 10.8486 0.817905 10.8486 1.79939L 10.8486 27.0727C 10.8486 28.0746 10.0283 28.8925 9.04394 28.8925Z"/>
<path id="path9_fill" d="M 9.04394 10.8168L 1.80469 10.8168C 0.799803 10.8168 1.2517e-06 9.99889 1.2517e-06 9.01741L 1.2517e-06 1.79939C 1.2517e-06 0.797459 0.820311 6.24012e-07 1.80469 6.24012e-07L 9.04394 6.24012e-07C 10.0488 6.24012e-07 10.8486 0.817907 10.8486 1.79939L 10.8486 9.01741C 10.8486 9.99889 10.0283 10.8168 9.04394 10.8168Z"/>
<path id="path10_fill" d="M 9.04395 7.21802L 1.80469 7.21802C 0.799805 7.21802 5.82867e-15 6.40011 5.82867e-15 5.41862L 5.82867e-15 1.79939C 5.82867e-15 0.797457 0.820313 -1.24802e-06 1.80469 -1.24802e-06L 9.04395 -1.24802e-06C 10.0488 -1.24802e-06 10.8486 0.817905 10.8486 1.79939L 10.8486 5.41862C 10.8486 6.40011 10.0283 7.21802 9.04395 7.21802Z"/>
<path id="path11_fill" d="M 77.8271 3.59878L 1.80469 3.59878C 0.799805 3.59878 0 2.78088 0 1.79939C 0 0.79746 0.820313 -1.24802e-06 1.80469 -1.24802e-06L 77.8477 -1.24802e-06C 78.8525 -1.24802e-06 79.6523 0.817908 79.6523 1.79939C 79.6318 2.78088 78.832 3.59878 77.8271 3.59878Z"/>
<path id="path12_fill" d="M 15.0322 5.84803L 15.0322 1.24802e-06L 6.25849e-07 1.24802e-06L 6.25849e-07 5.84803L 7.50586 12.514L 15.0322 5.84803Z"/>
<path id="path13_fill" d="M 40.8721 2.86267L 30.5361 0.429402C 30.3721 0.388506 30.2285 0.327165 30.1055 0.245374L 21.7383 5.11191L 13.6992 -1.16231e-14C 13.4941 0.204476 13.2275 0.34761 12.9404 0.408953L 2.58398 2.86267C 1.06641 3.21028 0 4.55982 0 6.11384L 0 12.6366C 0 13.5568 0.738281 14.2929 1.66113 14.2929L 41.7744 14.2929C 42.6973 14.2929 43.4355 13.5568 43.4355 12.6366L 43.4355 6.11384C 43.4561 4.55982 42.3896 3.21028 40.8721 2.86267Z"/>
<path id="path14_fill" d="M 6.25849e-07 1.24802e-06L 6.25849e-07 6.15474C 9.47461 9.54905 15.0322 1.04283 15.0322 1.04283L 15.0322 1.24802e-06L 6.25849e-07 1.24802e-06Z"/>
<path id="path15_fill" d="M 0 -1.24802e-06L 0.738281 15.9696C 0.799804 17.4623 1.53809 18.8527 2.74805 19.732L 6.19336 22.3084C 7.05469 22.9627 8.12109 23.3103 9.20801 23.3103L 12.5508 23.3103C 13.6377 23.3103 14.6836 22.9627 15.5654 22.3084L 19.0107 19.732C 20.2002 18.8323 20.9385 17.4623 21.0205 15.9696L 21.7383 -1.24802e-06L 0 -1.24802e-06Z"/>
<path id="path16_fill" d="M 8.34668 3.33296C 11.6895 3.33296 16.6934 2.49461 17.8828 -1.24802e-06L 0 -1.24802e-06L 0.717773 15.9696C 0.779297 17.4623 1.51758 18.8527 2.72754 19.732L 6.17285 22.3084C 7.03418 22.9627 8.10059 23.3103 9.1875 23.3103L 10.8486 23.3103C 9.1875 23.3103 5.84473 19.9773 5.84473 15.806C 5.84473 13.7613 5.84473 8.30174 5.84473 5.80713C 5.84473 5.00967 6.68555 3.33296 8.34668 3.33296Z"/>
<path id="path17_fill" d="M 1.37462 4.84609L 6.78868 -2.49605e-06C 7.23985 0.572531 7.50645 1.2882 7.50645 2.06521L 7.50645 8.58801C 7.50645 9.50815 6.76817 10.2443 5.84532 10.2443L 0.000593369 10.2443L 0.000593369 7.93369C -0.0199144 6.76817 0.49278 5.64355 1.37462 4.84609Z"/>
<path id="path18_fill" d="M 6.13184 4.84609L 0.717773 -2.49605e-06C 0.266602 0.572531 0 1.2882 0 2.06521L 0 8.58801C 0 9.50815 0.738281 10.2443 1.66113 10.2443L 7.50586 10.2443L 7.50586 7.93369C 7.52637 6.76817 7.01367 5.64355 6.13184 4.84609Z"/>
<path id="path19_fill" d="M 4.18359 7.48383L -6.25849e-07 7.48383L 0.533204 -2.49605e-06L 3.6709 -2.49605e-06L 4.18359 7.48383Z"/>
<path id="path20_fill" d="M 4.18359 1.24802e-06L -6.25849e-07 1.24802e-06L -6.25849e-07 0.490743C -6.25849e-07 1.61536 0.902344 2.51506 2.03027 2.51506L 2.15332 2.51506C 3.28125 2.51506 4.18359 1.61536 4.18359 0.490743L 4.18359 1.24802e-06Z"/>
<path id="path21_fill" d="M 2.39941 0.216814L 10.0283 7.06677C 10.0283 7.06677 7.89551 8.1505 5.25 10.3179C 4.69629 10.7678 3.87598 10.5838 3.58887 9.94989L 0 2.07755L 1.12793 0.380393C 1.43555 -0.0490077 2.00976 -0.130796 2.39941 0.216814Z"/>
<path id="path22_fill" d="M 7.62891 0.216814L 2.91434e-15 7.06677C 2.91434e-15 7.06677 2.13281 8.1505 4.77832 10.3179C 5.33203 10.7678 6.15234 10.5838 6.43945 9.94989L 10.0283 2.07755L 8.90039 0.380393C 8.59277 -0.0490077 7.99805 -0.130796 7.62891 0.216814Z"/>
<path id="path23_fill" d="M 1.2517e-06 0.51205L 0.779296 6.03291C 4.34766 6.74858 4.86035 12.3308 4.94238 13.9462C 4.96289 14.2324 5.04492 14.5187 5.20898 14.7641L 6.58301 16.8702C 6.58301 16.8702 6.11133 13.3736 8.24414 11.0426C 8.26465 11.0426 8.98242 -2.80047 1.2517e-06 0.51205Z"/>
<path id="path24_fill" d="M 3.43732 2.147L 2.49396 5.90937C 2.39142 6.35922 1.98126 6.66593 1.50958 6.66593C 0.996887 6.66593 0.566224 6.29787 0.5047 5.78668L 0.0125142 1.94253C -0.110533 0.920143 0.689271 -6.24012e-07 1.73517 -6.24012e-07C 2.88361 -6.24012e-07 3.70392 1.04283 3.43732 2.147Z"/>
<path id="path25_fill" d="M 3.39636 2.15019L 4.62683 2.98854C -0.951293 7.09851 0.0740976 14.1529 0.0740976 14.1529C 1.73523 15.8092 1.73523 19.9805 1.73523 19.9805L 3.39636 18.3243C 3.39636 18.3243 2.76062 13.5191 5.89832 11.6583C 8.83093 9.94074 11.3739 10.82 13.9989 10.82C 20.9921 10.82 22.9608 8.18224 22.6122 4.99241C 22.4276 3.33615 19.9052 -0.119504 13.4247 0.0031821C 10.8407 0.0440774 5.93933 0.841537 3.39636 2.15019Z"/>
<path id="path26_fill" d="M 2.90418 7.11578C 2.90418 7.11578 2.02234 3.61923 4.62683 -6.24012e-07C -0.951293 4.10997 0.0740976 11.1644 0.0740976 11.1644C 1.73523 12.8207 1.73523 16.992 1.73523 16.992L 3.39636 15.3357C 3.39636 15.3357 2.76062 10.5305 5.89832 8.6698C 8.83093 6.9522 11.3739 7.83145 13.9989 7.83145C 15.1268 7.83145 16.1317 7.74965 17.0136 7.62697C 11.6405 7.83145 8.4823 3.76237 2.90418 7.11578Z"/>
<path id="path27_fill" d="M 0.0566322 2.147L 0.999992 5.90937C 1.10253 6.35922 1.51269 6.66593 1.98437 6.66593C 2.49706 6.66593 2.92773 6.29787 2.98925 5.78668L 3.48144 1.94253C 3.60448 0.920143 2.80468 -6.24012e-07 1.75878 -6.24012e-07C 0.610344 -6.24012e-07 -0.230477 1.04283 0.0566322 2.147Z"/>
<path id="path28_fill" d="M 5.84473 -2.49605e-06L 1.66113 -2.49605e-06C 0.73828 -2.49605e-06 6.25849e-07 0.736114 6.25849e-07 1.65626L 7.52637 1.65626C 7.52637 0.736114 6.76758 -2.49605e-06 5.84473 -2.49605e-06Z"/>
</defs>
</svg>
