<svg width="123" height="75" viewBox="0 0 123 75" version="1.1" xmlns="http://www.w3.org/2000/svg" xmlns:xlink="http://www.w3.org/1999/xlink" xmlns:figma="http://www.figma.com/figma/ns">
<title>Holdem Manager 2</title>
<desc>Created using Figma</desc>
<g id="Canvas" transform="translate(-198 -3092)" figma:type="canvas">
<g id="Holdem Manager 2" figma:type="frame">
<g id="Vector" figma:type="vector">
<use xlink:href="#path0_fill" transform="translate(198 3158.56)" fill="#CCCCCC"/>
</g>
<g id="Vector" figma:type="vector">
<use xlink:href="#path1_fill" transform="translate(242.644 3158.56)" fill="#666666"/>
</g>
<g id="Vector" figma:type="vector">
<use xlink:href="#path2_fill" transform="translate(207.66 3092)" fill="#CCCCCC"/>
</g>
<g id="Vector" figma:type="vector">
<use xlink:href="#path3_fill" transform="translate(212.299 3096.41)" fill="#FFFFFF"/>
</g>
<g id="Vector" figma:type="vector">
<use xlink:href="#path4_fill" transform="translate(218.685 3103.29)" fill="#ECF0F1"/>
</g>
<g id="Vector" figma:type="vector">
<use xlink:href="#path5_fill" transform="translate(276.452 3115.89)" fill="#C3CCCF"/>
</g>
<g id="Vector" figma:type="vector">
<use xlink:href="#path6_fill" transform="translate(276.452 3103.29)" fill="#C3CCCF"/>
</g>
<g id="Vector" figma:type="vector">
<use xlink:href="#path7_fill" transform="translate(276.452 3128.45)" fill="#C3CCCF"/>
</g>
<g id="Vector" figma:type="vector">
<use xlink:href="#path8_fill" transform="translate(281.218 3105.23)" fill="#FFFFFF"/>
</g>
<g id="Vector" figma:type="vector">
<use xlink:href="#path9_fill" transform="translate(281.218 3117.79)" fill="#FFFFFF"/>
</g>
<g id="Vector" figma:type="vector">
<use xlink:href="#path10_fill" transform="translate(281.218 3130.39)" fill="#FFFFFF"/>
</g>
<g id="Vector" figma:type="vector">
<use xlink:href="#path11_fill" transform="translate(212.299 3096.41)" fill="#FF3333"/>
</g>
<g id="Vector" figma:type="vector">
<use xlink:href="#path12_fill" transform="translate(239.275 3121.98)" fill="#F0B97D"/>
</g>
<g id="Vector" figma:type="vector">
<use xlink:href="#path13_fill" transform="translate(235.399 3128.23)" fill="#F1F1F1"/>
</g>
<g id="Vector" figma:type="vector">
<use xlink:href="#path14_fill" transform="translate(244.391 3130.23)" fill="#FF5B61"/>
</g>
<g id="Vector" figma:type="vector">
<use xlink:href="#path15_fill" transform="translate(229.489 3128.2)" fill="#15BDB1"/>
</g>
<g id="Vector" figma:type="vector">
<use xlink:href="#path16_fill" transform="translate(238.259 3128.2)" fill="#20D0C2"/>
</g>
<g id="Vector" figma:type="vector">
<use xlink:href="#path17_fill" transform="translate(237.302 3105.74)" fill="#FED198"/>
</g>
<g id="Vector" figma:type="vector">
<use xlink:href="#path18_fill" transform="translate(237.889 3103.95)" fill="#666666"/>
</g>
<g id="Vector" figma:type="vector">
<use xlink:href="#path19_fill" transform="translate(240.483 3126.39)" fill="#FFFFFF"/>
</g>
<g id="Vector" figma:type="vector">
<use xlink:href="#path20_fill" transform="translate(245.567 3126.39)" fill="#FFFFFF"/>
</g>
<g id="Vector" figma:type="vector">
<use xlink:href="#path21_fill" transform="translate(242.254 3121.44)" fill="#666666"/>
</g>
<g id="Vector" figma:type="vector">
<use xlink:href="#path22_fill" transform="translate(218.685 3137.59)" fill="#FBB429"/>
</g>
<g id="Vector" figma:type="vector">
<use xlink:href="#path23_fill" transform="translate(212.998 3133.12)" fill="#ECF0F1"/>
</g>
<g id="Vector" figma:type="vector">
<use xlink:href="#path24_fill" transform="translate(213.379 3133.5)" fill="#FF3333"/>
</g>
<g id="Vector" figma:type="vector">
<use xlink:href="#path25_fill" transform="translate(216.684 3135.62)" fill="#FFFFFF"/>
</g>
<g id="Vector" figma:type="vector">
<use xlink:href="#path26_fill" transform="translate(255.703 3137.59)" fill="#C8CACC"/>
</g>
<g id="Vector" figma:type="vector">
<use xlink:href="#path27_fill" transform="translate(227.36 3144.25)" fill="#C8CACC"/>
</g>
<g id="Vector" figma:type="vector">
<use xlink:href="#path28_fill" transform="translate(291.99 3103.45)" fill="#C8CACC"/>
</g>
<g id="Vector" figma:type="vector">
<use xlink:href="#path29_fill" transform="translate(291.99 3115.48)" fill="#C8CACC"/>
</g>
<g id="Vector" figma:type="vector">
<use xlink:href="#path30_fill" transform="translate(291.99 3128.55)" fill="#C8CACC"/>
</g>
<g id="Vector" figma:type="vector">
<use xlink:href="#path5_fill" transform="translate(276.452 3140.95)" fill="#C3CCCF"/>
</g>
<g id="Vector" figma:type="vector">
<use xlink:href="#path31_fill" transform="translate(281.218 3142.86)" fill="#FFFFFF"/>
</g>
<g id="Vector" figma:type="vector">
<use xlink:href="#path32_fill" transform="translate(291.99 3141.02)" fill="#C8CACC"/>
</g>
<g id="Vector" figma:type="vector">
<use xlink:href="#path33_fill" transform="translate(221.895 3096.41)" fill="#ECF0F1"/>
</g>
<g id="Vector" figma:type="vector">
<use xlink:href="#path34_fill" transform="translate(220.846 3157.13)" fill="#666666"/>
</g>
</g>
</g>
<defs>
<path id="path0_fill" d="M 0 9.68197e-07L 123 9.68197e-07L 123 4.21954C 123 6.53553 121.094 8.43908 118.774 8.43908L 4.22604 8.43908C 1.90648 8.43908 0 6.53553 0 4.21954L 0 9.68197e-07Z"/>
<path id="path1_fill" d="M 9.03092e-15 9.68197e-07L 33.713 9.68197e-07L 33.713 1.23731C 33.713 1.90355 33.141 2.47462 32.4738 2.47462L 1.23921 2.47462C 0.571943 2.47462 9.03092e-15 1.90355 9.03092e-15 1.23731L 9.03092e-15 9.68197e-07Z"/>
<path id="path2_fill" d="M 2.19246 0L 101.457 0C 102.664 0 103.649 0.983503 103.649 2.18909L 103.649 62.9124C 103.649 64.118 102.664 65.1015 101.457 65.1015L 2.19246 65.1015C 0.985017 65.1015 -1.21211e-07 64.118 -1.21211e-07 62.9124L -1.21211e-07 2.18909C -1.21211e-07 0.983503 0.985017 0 2.19246 0Z"/>
<path id="path3_fill" d="M 94.4345 0L 0 0L 0 57.4556L 94.4345 57.4556L 94.4345 0Z"/>
<path id="path4_fill" d="M 53.7946 0L 0 0L 0 34.264L 53.7946 34.264L 53.7946 0Z"/>
<path id="path5_fill" d="M 12.8052 0L -1.93938e-06 0L -1.93938e-06 8.15355L 12.8052 8.15355L 12.8052 0Z"/>
<path id="path6_fill" d="M 12.8052 0L -1.93938e-06 0L -1.93938e-06 8.15355L 12.8052 8.15355L 12.8052 0Z"/>
<path id="path7_fill" d="M 12.8052 0L -1.93938e-06 0L -1.93938e-06 8.15355L 12.8052 8.15355L 12.8052 0Z"/>
<path id="path8_fill" d="M -1.93938e-06 2.42049e-07L 3.2728 2.15736L -1.93938e-06 4.31472L -1.93938e-06 2.42049e-07Z"/>
<path id="path9_fill" d="M -1.93938e-06 9.68197e-07L 3.2728 2.15736L -1.93938e-06 4.31472L -1.93938e-06 9.68197e-07Z"/>
<path id="path10_fill" d="M -1.93938e-06 0L 3.2728 2.15736L -1.93938e-06 4.31472L -1.93938e-06 0Z"/>
<path id="path11_fill" d="M 9.62774 0L 0 0L 0 3.61675L 9.62774 3.61675L 9.62774 0Z"/>
<path id="path12_fill" d="M 3.24102 0L 9.37354 0L 9.88194 5.17132L 10.7716 5.86929L 12.6463 7.04315L 9.02403 15.5774L 3.62232 15.5774L -1.93938e-06 7.04315L 1.87471 5.86929L 2.7644 5.17132L 3.24102 0Z"/>
<path id="path13_fill" d="M 5.08396 -9.68197e-07L -9.69688e-07 1.61802L 5.59235 9.32741L 13.9809 9.32741L 18.8742 1.14213L 15.2836 -9.68197e-07L 12.1062 2.22081L 8.29321 2.22081L 5.08396 -9.68197e-07Z"/>
<path id="path14_fill" d="M 0.0635485 0.0317254L 0.508398 1.11041L 0 7.3604L 2.38311 7.3604L 1.90648 1.11041L 2.35133 0.0317254L 1.20744 0L 0.0635485 0.0317254Z"/>
<path id="path15_fill" d="M 11.0894 -4.84099e-07L 2.09713 2.85533C 2.09713 2.85533 0.921468 3.45812 0.571946 5.29822C 0.317748 6.56726 0.158873 7.8363 -4.84844e-07 9.35914L 14.2351 9.35914L 11.0894 -4.84099e-07ZM 32.1878 9.39086C 32.0289 7.86802 31.8701 6.59898 31.6159 5.32995C 31.2663 3.48985 30.0907 2.88705 30.0907 2.88705L 21.1302 0.0634527L 17.9527 9.39086L 32.1878 9.39086Z"/>
<path id="path16_fill" d="M 2.31956 -4.84099e-07L 0.381297 0.602792L -9.69688e-07 5.5203C -9.69688e-07 5.5203 0.0953242 5.93274 0.413072 5.90101L 2.16068 6.56726C 2.16068 6.56726 2.28778 6.69416 2.16068 6.82107L 0.66727 7.83629L 1.46164 9.35914L 5.43348 9.35914L 2.31956 -4.84099e-07ZM 13.1547 9.39086L 13.9491 7.86802L 12.4557 6.85279C 12.3604 6.69416 12.4557 6.59898 12.4557 6.59898L 14.2033 5.93274C 14.5211 5.96447 14.6164 5.55203 14.6164 5.55203L 14.2351 0.634517L 12.3604 0.0317249L 9.1829 9.35914L 13.1547 9.39086Z"/>
<path id="path17_fill" d="M 1.11548 5.71066C 1.11548 6.18655 0.924833 6.66244 0.956607 7.13833C -0.695679 6.82107 0.0986905 11.7069 1.05193 12.3731C 1.11548 12.4365 1.30613 12.3096 1.465 12.2145C 1.78275 14.0228 4.54715 18.8135 6.29476 20.8122C 6.77138 21.3832 9.75821 21.3515 10.2348 20.8439C 12.0142 18.8769 14.7786 14.0228 15.0964 12.2145C 15.2552 12.3096 15.4459 12.4365 15.5094 12.3731C 16.4309 11.7069 17.2253 6.82107 15.6048 7.13833C 15.6048 6.66244 15.4459 6.21827 15.4459 5.71066C 15.3506 1.90355 11.9189 0.0317256 8.29657 -2.42049e-07C 4.67425 0.0317256 1.21081 1.93528 1.11548 5.71066Z"/>
<path id="path18_fill" d="M 2.75293 2.64648C 2.24454 2.58303 0.369828 3.1541 0.147405 5.15283C -0.0750185 7.11984 0.0203053 8.95994 0.0203053 8.95994C 0.0203053 8.95994 1.13242 9.24547 1.25952 10.3559C 1.38662 11.4663 1.2913 11.4663 1.2913 11.4663L 1.67259 11.3711L 1.95856 9.43583C 3.61085 8.4206 1.95857 6.89775 3.57908 6.51704C 8.02754 9.68963 11.9358 9.15029 13.7152 7.65917C 13.7152 7.65917 13.3021 9.21374 13.6199 9.75308C 13.9376 10.3242 13.747 11.1807 13.747 11.1807L 14.1601 11.149C 14.1601 11.149 14.0965 8.86476 15.018 8.86476C 18.5132 3.18582 7.45559 -3.9525 2.75293 2.64648Z"/>
<path id="path19_fill" d="M 1.49341 4.84099e-07C 1.62051 4.84099e-07 -9.69688e-07 1.8401 -9.69688e-07 1.8401L 1.39809 6.59898L 5.11573 3.80711C 3.05038 2.8236 1.84293 1.52284 1.49341 4.84099e-07Z"/>
<path id="path20_fill" d="M 3.62232 4.84099e-07C 3.49522 4.84099e-07 5.11573 1.8401 5.11573 1.8401L 3.71764 6.59898L -9.69688e-07 3.80711C 2.06536 2.8236 3.30457 1.52284 3.62232 4.84099e-07Z"/>
<path id="path21_fill" d="M 1.3106 0.69797L 2.3274 9.68197e-07C 2.64514 0.285534 4.10678 0.285534 4.42453 9.68197e-07L 5.37777 0.69797C 5.82262 1.04695 6.29924 1.14213 6.42634 1.68147L 6.80763 3.36294C 6.93473 3.90228 5.88617 5.64721 5.31422 5.64721L 1.27883 5.64721C 0.706885 5.64721 -0.0874831 3.96574 0.00784114 3.4264L 0.293812 1.68147C 0.357361 1.14213 0.833981 1.01523 1.3106 0.69797ZM 3.05821 1.07868L 1.08818 2.12563C 1.08818 2.12563 1.18351 3.26777 1.4377 3.64848C 1.6919 3.99746 2.70869 3.58502 2.70869 3.58502C 2.70869 3.58502 2.70869 2.6967 2.99466 2.6967L 3.66194 2.6967C 3.94791 2.6967 3.94791 3.58502 3.94791 3.58502C 3.94791 3.58502 4.9647 3.99746 5.2189 3.64848C 5.47309 3.29949 5.56842 2.12563 5.56842 2.12563L 3.59839 1.07868L 3.34419 1.14213L 3.05821 1.07868Z"/>
<path id="path22_fill" d="M 53.7946 0L 0 0L 0 2.41117L 53.7946 2.41117L 53.7946 0Z"/>
<path id="path23_fill" d="M 5.68768 1.93639e-06C 8.83337 1.93639e-06 11.3754 2.53807 11.3754 5.67893C 11.3754 8.8198 8.83337 11.3579 5.68768 11.3579C 2.54198 11.3579 2.42422e-07 8.8198 2.42422e-07 5.67893C 2.42422e-07 2.53807 2.54198 1.93639e-06 5.68768 1.93639e-06Z"/>
<path id="path24_fill" d="M 5.30638 9.68197e-07C 8.22966 9.68197e-07 10.6128 2.37944 10.6128 5.29822C 10.6128 8.217 8.22966 10.5964 5.30638 10.5964C 2.3831 10.5964 4.84844e-07 8.217 4.84844e-07 5.29822C 4.84844e-07 2.34772 2.3831 9.68197e-07 5.30638 9.68197e-07Z"/>
<path id="path25_fill" d="M -2.42422e-07 0L 4.79799 3.17259L -2.42422e-07 6.34518L -2.42422e-07 0Z"/>
<path id="path26_fill" d="M 16.7771 0L 1.93938e-06 0L 1.93938e-06 2.41117L 16.7771 2.41117L 16.7771 0Z"/>
<path id="path27_fill" d="M 4.84844e-07 -9.68197e-07L 38.0661 -9.68197e-07L 38.0661 1.20558L 4.84844e-07 1.20558L 4.84844e-07 -9.68197e-07ZM 4.84844e-07 3.61675L 23.2273 3.61675L 23.2273 4.82233L 4.84844e-07 4.82233L 4.84844e-07 3.61675Z"/>
<path id="path28_fill" d="M -3.87875e-06 -4.84099e-07L 11.3436 -4.84099e-07L 11.3436 1.20558L -3.87875e-06 1.20558L -3.87875e-06 -4.84099e-07ZM -3.87875e-06 2.60152L 6.92689 2.60152L 6.92689 3.80711L -3.87875e-06 3.80711L -3.87875e-06 2.60152Z"/>
<path id="path29_fill" d="M -3.87875e-06 0L 11.3436 0L 11.3436 1.20558L -3.87875e-06 1.20558L -3.87875e-06 0ZM -3.87875e-06 2.60152L 6.92689 2.60152L 6.92689 3.80711L -3.87875e-06 3.80711L -3.87875e-06 2.60152Z"/>
<path id="path30_fill" d="M -3.87875e-06 -9.68197e-07L 11.3436 -9.68197e-07L 11.3436 1.20558L -3.87875e-06 1.20558L -3.87875e-06 -9.68197e-07ZM -3.87875e-06 2.60152L 6.92689 2.60152L 6.92689 3.80711L -3.87875e-06 3.80711L -3.87875e-06 2.60152Z"/>
<path id="path31_fill" d="M -1.93938e-06 9.68197e-07L 3.2728 2.15736L -1.93938e-06 4.31472L -1.93938e-06 9.68197e-07Z"/>
<path id="path32_fill" d="M -3.87875e-06 0L 11.3436 0L 11.3436 1.20558L -3.87875e-06 1.20558L -3.87875e-06 0ZM -3.87875e-06 2.63325L 6.92689 2.63325L 6.92689 3.83883L -3.87875e-06 3.83883L -3.87875e-06 2.63325Z"/>
<path id="path33_fill" d="M 84.8068 0L 0 0L 0 3.61675L 84.8068 3.61675L 84.8068 0Z"/>
<path id="path34_fill" d="M 4.84844e-07 9.68197e-07L 6.86334 9.68197e-07L 6.86334 1.42767L 4.84844e-07 1.42767L 4.84844e-07 9.68197e-07ZM 70.4128 9.68197e-07L 77.2762 9.68197e-07L 77.2762 1.42767L 70.4128 1.42767L 70.4128 9.68197e-07Z"/>
</defs>
</svg>
