<svg width="82" height="82" viewBox="0 0 82 82" version="1.1" xmlns="http://www.w3.org/2000/svg" xmlns:xlink="http://www.w3.org/1999/xlink" xmlns:figma="http://www.figma.com/figma/ns">
<title>&#208;&#152;&#208;&#189;&#208;&#180;&#208;&#184;&#208;&#178;&#208;&#184;&#208;&#180;&#209;&#131;&#208;&#176;&#208;&#187;&#209;&#140;&#208;&#189;&#209;&#139;&#208;&#181; &#208;&#183;&#208;&#176;&#208;&#189;&#209;&#143;&#209;&#130;&#208;&#184;&#209;&#143;</title>
<desc>Created using Figma</desc>
<g id="Canvas" transform="translate(-222 -3356)" figma:type="canvas">
<g id="&#208;&#152;&#208;&#189;&#208;&#180;&#208;&#184;&#208;&#178;&#208;&#184;&#208;&#180;&#209;&#131;&#208;&#176;&#208;&#187;&#209;&#140;&#208;&#189;&#209;&#139;&#208;&#181; &#208;&#183;&#208;&#176;&#208;&#189;&#209;&#143;&#209;&#130;&#208;&#184;&#209;&#143;" figma:type="frame">
<g id="Group" figma:type="frame">
<g id="Vector" figma:type="vector">
<use xlink:href="#path0_fill" transform="translate(234.629 3364.48)" fill="#FF3333"/>
</g>
<g id="Vector" figma:type="vector">
<use xlink:href="#path1_fill" transform="translate(230.485 3395.58)" fill="#FF3333"/>
</g>
</g>
<g id="Vector" figma:type="vector">
<use xlink:href="#path2_fill" transform="translate(283.044 3423.62)" fill="#E6AF78"/>
</g>
<g id="Vector" figma:type="vector">
<use xlink:href="#path3_fill" transform="translate(272.894 3427.71)" fill="#EFF2FA"/>
</g>
<g id="Vector" figma:type="vector">
<use xlink:href="#path4_fill" transform="translate(283.044 3423.62)" fill="#D29B6E"/>
</g>
<g id="Vector" figma:type="vector">
<use xlink:href="#path5_fill" transform="translate(280.642 3409.87)" fill="#F0C087"/>
</g>
<g id="Vector" figma:type="vector">
<use xlink:href="#path6_fill" transform="translate(280.658 3409.87)" fill="#E6AF78"/>
</g>
<g id="Group" figma:type="frame">
<g id="Vector" figma:type="vector">
<use xlink:href="#path7_fill" transform="translate(298.589 3430.62)" fill="#E4EAF6"/>
</g>
<g id="Vector" figma:type="vector">
<use xlink:href="#path8_fill" transform="translate(272.878 3430.6)" fill="#E4EAF6"/>
</g>
</g>
<g id="Vector" figma:type="vector">
<use xlink:href="#path9_fill" transform="translate(286.934 3432.59)" fill="#5B5D6E"/>
</g>
<g id="Vector" figma:type="vector">
<use xlink:href="#path10_fill" transform="translate(286.918 3431.39)" fill="#515262"/>
</g>
<g id="Group" figma:type="frame">
<g id="Vector" figma:type="vector">
<use xlink:href="#path11_fill" transform="translate(281.251 3426.32)" fill="#E4EAF6"/>
</g>
<g id="Vector" figma:type="vector">
<use xlink:href="#path12_fill" transform="translate(288.423 3426.32)" fill="#E4EAF6"/>
</g>
</g>
<g id="Vector" figma:type="vector">
<use xlink:href="#path13_fill" transform="translate(292.041 3405.53)" fill="#785550"/>
</g>
<g id="Vector" figma:type="vector">
<use xlink:href="#path14_fill" transform="translate(294.896 3415.84)" fill="#F0C087"/>
</g>
<g id="Vector" figma:type="vector">
<use xlink:href="#path15_fill" transform="translate(278.793 3403.29)" fill="#694B4B"/>
</g>
<g id="Vector" figma:type="vector">
<use xlink:href="#path16_fill" transform="translate(278.793 3405.44)" fill="#5A4146"/>
</g>
<g id="Vector" figma:type="vector">
<use xlink:href="#path17_fill" transform="translate(279.453 3415.84)" fill="#E6AF78"/>
</g>
<g id="Vector" figma:type="vector">
<use xlink:href="#path18_fill" transform="translate(291.417 3436.77)" fill="#E4EAF6"/>
</g>
<g id="Vector" figma:type="vector">
<use xlink:href="#path19_fill" transform="translate(224.176 3356)" fill="#694B4B"/>
</g>
<g id="Vector" figma:type="vector">
<use xlink:href="#path20_fill" transform="translate(224.176 3356.03)" fill="#5A4146"/>
</g>
<g id="Vector" figma:type="vector">
<use xlink:href="#path21_fill" transform="translate(227.507 3356)" fill="#694B4B"/>
</g>
<g id="Vector" figma:type="vector">
<use xlink:href="#path22_fill" transform="translate(238.82 3356.8)" fill="#785550"/>
</g>
<g id="Vector" figma:type="vector">
<use xlink:href="#path23_fill" transform="translate(222 3377.13)" fill="#E6AF78"/>
</g>
<g id="Vector" figma:type="vector">
<use xlink:href="#path24_fill" transform="translate(222 3380.41)" fill="#EFF2FA"/>
</g>
<g id="Vector" figma:type="vector">
<use xlink:href="#path25_fill" transform="translate(229.012 3377.13)" fill="#D29B6E"/>
</g>
<g id="Group" figma:type="frame">
<g id="Vector" figma:type="vector">
<use xlink:href="#path26_fill" transform="translate(222 3383.62)" fill="#E4EAF6"/>
</g>
<g id="Vector" figma:type="vector">
<use xlink:href="#path27_fill" transform="translate(242.94 3383.63)" fill="#E4EAF6"/>
</g>
<g id="Vector" figma:type="vector">
<use xlink:href="#path28_fill" transform="translate(233.975 3382.54)" fill="#E4EAF6"/>
</g>
<g id="Vector" figma:type="vector">
<use xlink:href="#path29_fill" transform="translate(228.724 3379.19)" fill="#E4EAF6"/>
</g>
<g id="Vector" figma:type="vector">
<use xlink:href="#path30_fill" transform="translate(234.711 3379.19)" fill="#E4EAF6"/>
</g>
</g>
<g id="Vector" figma:type="vector">
<use xlink:href="#path31_fill" transform="translate(227.379 3362.74)" fill="#F0C087"/>
</g>
<g id="Vector" figma:type="vector">
<use xlink:href="#path32_fill" transform="translate(227.379 3362.69)" fill="#E6AF78"/>
</g>
<g id="Vector" figma:type="vector">
<use xlink:href="#path33_fill" transform="translate(236.969 3388.18)" fill="#E4EAF6"/>
</g>
<g id="Group" figma:type="frame">
<g id="Vector" figma:type="vector">
<use xlink:href="#path34_fill" transform="translate(224.826 3392.75)" fill="#FF3333"/>
</g>
<g id="Vector" figma:type="vector">
<use xlink:href="#path35_fill" transform="translate(287.022 3392.75)" fill="#FF3333"/>
</g>
</g>
</g>
</g>
<defs>
<path id="path0_fill" d="M 59.4452 33.9078C 58.6607 33.9078 58.0364 33.2675 58.0364 32.499C 58.0364 16.1374 44.7166 2.81765 28.355 2.81765C 17.7888 2.81765 7.94304 8.50098 2.64393 17.6583C 2.25971 18.3307 1.37919 18.5709 0.706801 18.1706C 0.0344077 17.7864 -0.205734 16.9219 0.194501 16.2335C 6.0059 6.22764 16.7802 0 28.355 0C 46.2855 0 60.854 14.5845 60.854 32.499C 60.854 33.2835 60.2296 33.9078 59.4452 33.9078Z"/>
<path id="path1_fill" d="M 32.499 33.9078C 14.5685 33.9078 0 19.3393 0 1.40882C 0 0.624366 0.640375 -4.88567e-07 1.40882 -4.88567e-07C 2.17727 -4.88567e-07 2.81765 0.640375 2.81765 1.40882C 2.81765 17.7704 16.1374 31.0902 32.499 31.0902C 40.6958 31.0902 48.6205 27.6482 54.2077 21.6447C 54.736 21.0683 55.6326 21.0363 56.2089 21.5806C 56.7852 22.1089 56.8173 23.0055 56.2729 23.5818C 50.1413 30.1456 41.4803 33.9078 32.499 33.9078Z"/>
<path id="path2_fill" d="M 10.7583 4.17845L 10.7583 -9.77135e-07L -1.95427e-06 -9.77135e-07L -1.95427e-06 4.17845L 5.37915 8.96525L 10.7583 4.17845Z"/>
<path id="path3_fill" d="M 29.2331 2.0492L 21.8368 0.304176C 21.7247 0.272157 21.6287 0.240141 21.5326 0.176103L 15.5451 3.66614L 9.78173 -9.77135e-07C 9.63764 0.144083 9.44553 0.240143 9.23741 0.288171L 1.84108 2.03319C 0.768449 2.28934 -9.77135e-07 3.2499 -9.77135e-07 4.35455L -9.77135e-07 9.04529C -9.77135e-07 9.70168 0.528308 10.246 1.2007 10.246L 29.9055 10.246C 30.5619 10.246 31.1062 9.71769 31.1062 9.04529L 31.1062 4.35455C 31.0742 3.26591 30.3057 2.30535 29.2331 2.0492Z"/>
<path id="path4_fill" d="M -1.95427e-06 -9.77135e-07L -1.95427e-06 4.41859C 6.77196 6.86802 10.7583 0.752441 10.7583 0.752441L 10.7583 -9.77135e-07L -1.95427e-06 -9.77135e-07Z"/>
<path id="path5_fill" d="M -1.95427e-06 0L 0.52831 11.4627C 0.576338 12.5353 1.10465 13.5279 1.95314 14.1683L 4.41859 16.0254C 5.04295 16.4897 5.79539 16.7458 6.56384 16.7458L 8.94924 16.7458C 9.71769 16.7458 10.4861 16.4897 11.0945 16.0254L 13.5599 14.1683C 14.4244 13.5279 14.9367 12.5353 14.9848 11.4627L 15.5131 0L -1.95427e-06 0Z"/>
<path id="path6_fill" d="M 5.9715 2.3854C 8.35689 2.3854 11.943 1.79305 12.8075 0L -9.77135e-07 0L 0.528311 11.4627C 0.576339 12.5353 1.10465 13.5279 1.95314 14.1683L 4.41859 16.0254C 5.04295 16.4897 5.79539 16.7458 6.56384 16.7458L 7.76454 16.7458C 6.56384 16.7458 4.17845 14.3604 4.17845 11.3667C 4.17845 9.9098 4.17845 5.98751 4.17845 4.19446C 4.17845 3.5861 4.77079 2.3854 5.9715 2.3854Z"/>
<path id="path7_fill" d="M 0.992582 3.47403L 4.86685 9.77135e-07C 5.18703 0.416245 5.37915 0.928542 5.37915 1.48887L 5.37915 6.17962C 5.37915 6.836 4.85084 7.38032 4.17845 7.38032L -9.77134e-07 7.38032L -9.77134e-07 5.73135C -9.77134e-07 4.85084 0.352207 4.03436 0.992582 3.47403Z"/>
<path id="path8_fill" d="M 4.38657 3.49004L 0.5123 0C 0.192112 0.416244 -1.95427e-06 0.928542 -1.95427e-06 1.48887L -1.95427e-06 6.17962C -1.95427e-06 6.836 0.528307 7.38032 1.2007 7.38032L 5.37915 7.38032L 5.37915 5.73135C 5.37915 4.86685 5.02694 4.05037 4.38657 3.49004Z"/>
<path id="path9_fill" d="M 2.97775 5.37915L 9.77135e-07 5.37915L 0.368215 -9.77134e-07L 2.60953 -9.77134e-07L 2.97775 5.37915Z"/>
<path id="path10_fill" d="M 2.99375 -9.77135e-07L 0 -9.77135e-07L 0 0.432254C 0 1.18469 0.608356 1.79305 1.3608 1.79305L 1.63296 1.79305C 2.3854 1.79305 2.99375 1.18469 2.99375 0.432254L 2.99375 -9.77135e-07Z"/>
<path id="path11_fill" d="M 1.713 0.15249L 7.1722 5.06736C 7.1722 5.06736 5.6353 5.83581 3.74619 7.40473C 3.36197 7.72492 2.76962 7.59684 2.5615 7.13257L 9.77135e-07 1.48127L 0.81648 0.264553C 1.00859 -0.039625 1.44084 -0.0876502 1.713 0.15249Z"/>
<path id="path12_fill" d="M 5.4592 0.15249L -9.77135e-07 5.06736C -9.77135e-07 5.06736 1.5369 5.83581 3.426 7.40473C 3.81023 7.72492 4.40258 7.59684 4.6107 7.13257L 7.1722 1.48127L 6.35572 0.264553C 6.16361 -0.039625 5.73135 -0.0876502 5.4592 0.15249Z"/>
<path id="path13_fill" d="M 0 0.369612L 0.560328 4.32392C 3.12183 4.83622 3.49004 8.85458 3.53807 9.99124C 3.55408 10.1994 3.61812 10.4075 3.73018 10.5676L 4.70675 12.0885C 4.70675 12.0885 4.37056 9.59101 5.90746 7.91002C 5.90746 7.92603 6.43577 -2.01578 0 0.369612Z"/>
<path id="path14_fill" d="M 2.45992 1.5369L 1.78752 4.24248C 1.70747 4.56267 1.41931 4.7868 1.08311 4.7868C 0.714893 4.7868 0.410715 4.51464 0.362687 4.16243L 0.0104792 1.39282C -0.085577 0.656384 0.490762 -1.95427e-06 1.2432 -1.95427e-06C 2.05968 -1.95427e-06 2.65203 0.752439 2.45992 1.5369Z"/>
<path id="path15_fill" d="M 2.42557 1.53879L 3.30609 2.14715C -0.696258 5.09287 0.0561848 10.1678 0.0561848 10.1678C 1.25689 11.3685 1.25689 14.3463 1.25689 14.3463L 2.45759 13.1456C 2.45759 13.1456 1.99332 9.68756 4.25064 8.35878C 6.34787 7.12606 8.17294 7.76644 10.046 7.76644C 15.057 7.76644 16.4498 5.87733 16.2096 3.58799C 16.0816 2.4033 14.2725 -0.0781568 9.62979 0.00189011C 7.75669 0.0339089 4.25064 0.594238 2.42557 1.53879Z"/>
<path id="path16_fill" d="M 2.07337 5.10699C 2.07337 5.10699 1.43299 2.60953 3.30609 -1.95427e-06C -0.696258 2.94572 0.0561848 8.02069 0.0561848 8.02069C 1.25689 9.2214 1.25689 12.1991 1.25689 12.1991L 2.45759 10.9984C 2.45759 10.9984 1.99332 7.54042 4.25064 6.21164C 6.34786 4.97892 8.17294 5.61929 10.046 5.61929C 10.8625 5.61929 11.5669 5.57126 12.2073 5.4752C 8.33303 5.60328 6.0597 2.68958 2.07337 5.10699Z"/>
<path id="path17_fill" d="M 0.0363897 1.5369L 0.70878 4.24248C 0.788827 4.56267 1.077 4.7868 1.4132 4.7868C 1.78141 4.7868 2.08559 4.51464 2.13362 4.16243L 2.48582 1.39282C 2.58188 0.656384 2.00554 -1.95427e-06 1.2531 -1.95427e-06C 0.436625 -1.95427e-06 -0.155723 0.752439 0.0363897 1.5369Z"/>
<path id="path18_fill" d="M 4.29051 9.10027e-15L 1.08864 9.10027e-15C 0.48028 9.10027e-15 9.77134e-07 0.480279 9.77134e-07 1.08864L 9.77134e-07 1.2007L 5.37915 1.2007L 5.37915 1.08864C 5.37915 0.496289 4.88286 9.10027e-15 4.29051 9.10027e-15Z"/>
<path id="path19_fill" d="M 10.5357 0C -1.29524 0 0.0175282 14.4084 0.0655563 24.8305C 0.0655563 25.2308 0.273678 25.583 0.609875 25.7911C 1.92264 26.5756 5.52475 28.4326 10.5357 28.4326C 15.5466 28.4326 19.1487 26.5756 20.4615 25.7911C 20.7977 25.583 21.0058 25.2308 21.0058 24.8305C 21.0699 14.4084 22.3826 0 10.5357 0Z"/>
<path id="path20_fill" d="M 9.78293 4.77116e-10C -1.23152 0.608356 0.0172154 14.6005 0.0652435 24.7985C 0.0652435 25.1988 0.273365 25.551 0.609562 25.7591C 1.92233 26.5435 5.52444 28.4006 10.5354 28.4006L 13.5291 7.44436"/>
<path id="path21_fill" d="M 7.20422 0C 0.464272 0 2.44284e-07 8.13276 2.44284e-07 8.13276C 3.87427 7.47638 6.25966 9.10933 10.198 7.47638L 7.20422 28.4326C 12.2151 28.4326 15.8173 26.5756 17.13 25.7911C 17.4662 25.583 17.6743 25.2308 17.6743 24.8305C 17.7384 14.4084 19.0512 0 7.20422 0Z"/>
<path id="path22_fill" d="M 6.37777 24.0301C 6.42579 15.0648 7.38636 3.16986 0.150121 0C 0.0220464 0.656384 -0.202085 2.48145 0.390262 3.68216C 1.87913 6.67591 3.38401 6.67591 4.87289 8.91722C 6.36176 17.146 2.00721 25.8872 0.566365 27.0718C 3.12786 26.4635 4.96894 25.5029 5.81744 24.9746C 6.16964 24.7825 6.37777 24.4303 6.37777 24.0301Z"/>
<path id="path23_fill" d="M 24.0621 5.9715L 17.3862 3.18586C 16.8258 2.94572 16.4576 2.40141 16.4576 1.80906L 16.4576 0L 8.98126 0L 8.98126 1.80906C 8.98126 2.41742 8.61304 2.96173 8.05271 3.18586L 1.37681 5.9715C 0.544319 6.3237 0 7.14018 0 8.0367L 0 11.0465C 0 11.879 0.672394 12.5353 1.48887 12.5353L 23.934 12.5353C 24.7665 12.5353 25.4229 11.8629 25.4229 11.0465L 25.4229 8.05271C 25.4389 7.14018 24.8946 6.3237 24.0621 5.9715Z"/>
<path id="path24_fill" d="M 24.0621 2.68957L 17.6103 0L 12.7274 2.11324L 7.84459 0L 1.37681 2.68957C 0.544319 3.04178 0 3.85826 0 4.75478L 0 7.76454C 0 8.59703 0.672394 9.25342 1.48887 9.25342L 23.934 9.25342C 24.7665 9.25342 25.4229 8.58102 25.4229 7.76454L 25.4229 4.77079C 25.4389 3.85826 24.8946 3.04178 24.0621 2.68957Z"/>
<path id="path25_fill" d="M 9.44553 0L 1.96915 0L 1.96915 1.80906C 1.96915 2.41742 1.60094 2.96173 1.04061 3.18586L -1.22142e-07 3.61812C 7.98868 5.66732 9.44553 0 9.44553 0Z"/>
<path id="path26_fill" d="M 3.65014 2.3854L 0.640375 0C 0.240141 0.416244 0 0.960563 0 1.56892L 0 4.56267C 0 5.39516 0.672394 6.05154 1.48887 6.05154L 4.48262 6.05154L 4.48262 4.13042C 4.48262 3.45802 4.17845 2.81765 3.65014 2.3854Z"/>
<path id="path27_fill" d="M 4.49863 4.54666L 4.49863 1.55291C 4.49863 0.960563 4.25849 0.400235 3.85826 9.77135e-07L 0.848498 2.3854C 0.320188 2.81765 4.88567e-07 3.45802 4.88567e-07 4.13042L 4.88567e-07 6.05154L 2.99375 6.05154C 3.82624 6.03553 4.49863 5.36314 4.49863 4.54666Z"/>
<path id="path28_fill" d="M 0.784459 5.6353L 0.704412 5.6353C 0.320187 5.6353 4.88567e-07 5.31511 4.88567e-07 4.93089L 4.88567e-07 4.88567e-07L 1.48887 4.88567e-07L 1.48887 4.93089C 1.48887 5.31511 1.16868 5.6353 0.784459 5.6353Z"/>
<path id="path29_fill" d="M 5.9875 3.34008L 1.713 0.122195C 1.44084 -0.0859264 1.04061 -0.0218899 0.848497 0.266279L -1.13753e-15 1.53102L 2.62554 5.21317C 2.81765 5.48533 3.21788 5.54937 3.49004 5.32524L 5.9875 3.34008Z"/>
<path id="path30_fill" d="M 2.44284e-07 3.34008L 4.2745 0.122195C 4.54666 -0.0859264 4.9469 -0.0218899 5.13901 0.266279L 5.9875 1.53102L 3.36197 5.21317C 3.16986 5.48533 2.76962 5.54937 2.49746 5.32524L 2.44284e-07 3.34008Z"/>
<path id="path31_fill" d="M 11.0785 -2.44284e-07C 7.33229 3.74619 -2.44284e-07 0.75244 -2.44284e-07 6.73995L 0.464272 11.1425C 0.560328 12.1351 1.12066 12.9996 1.98516 13.4799L 6.24365 15.8493C 6.91605 16.2335 7.74854 16.2335 8.42093 15.8493L 12.6794 13.4799C 13.5439 12.9996 14.1203 12.1191 14.2003 11.1425L 14.7446 5.90746C 14.7766 5.53924 14.7927 5.15502 14.7766 4.7868C 14.5045 2.88169 11.8309 1.48887 11.0785 -2.44284e-07Z"/>
<path id="path32_fill" d="M -2.44284e-07 6.77196L 0.464272 11.1745C 0.560328 12.1671 1.12066 13.0316 1.98516 13.5119L 6.24365 15.8813C 6.70793 16.1374 7.25225 16.2175 7.76454 16.1054C 7.76454 16.1054 5.61929 15.449 4.33854 11.991C 3.95431 10.9344 3.41 5.31511 3.87427 4.62671C 4.80281 3.26591 9.95783 3.13784 11.4787 0.608356C 11.3987 0.5123 11.3346 0.416244 11.2706 0.320187L 11.2546 0.304178C 11.1906 0.208122 11.1265 0.112065 11.0785 -1.22142e-07C 7.33229 3.77821 -2.44284e-07 0.784459 -2.44284e-07 6.77196Z"/>
<path id="path33_fill" d="M 3.0738 0L 1.40883 0C 0.624366 0 0 0.640375 0 1.40883L 0 1.48887L 4.48262 1.48887L 4.48262 1.40883C 4.48262 0.624366 3.85826 0 3.0738 0Z"/>
<path id="path34_fill" d="M 12.7194 8.47696C 12.3512 8.47696 11.999 8.33288 11.7269 8.06072L 7.06814 3.40199L 2.40941 8.06072C 1.86509 8.60504 0.968567 8.60504 0.408239 8.06072C -0.13608 7.5164 -0.13608 6.61987 0.408239 6.05955L 6.05955 0.40824C 6.60387 -0.136079 7.50039 -0.136079 8.06072 0.40824L 13.712 6.05955C 14.2563 6.60386 14.2563 7.50039 13.712 8.06072C 13.4399 8.33288 13.0877 8.47696 12.7194 8.47696Z"/>
<path id="path35_fill" d="M 7.05213 8.47696C 6.68391 8.47696 6.33171 8.33288 6.05955 8.06072L 0.408241 2.40941C -0.136078 1.86509 -0.136078 0.968568 0.408241 0.40824C 0.95256 -0.136079 1.84908 -0.136079 2.40941 0.40824L 7.06814 5.06697L 11.7269 0.40824C 12.2712 -0.136079 13.1677 -0.136079 13.728 0.40824C 14.2724 0.952559 14.2724 1.84908 13.728 2.40941L 8.07673 8.06072C 7.77255 8.33288 7.42035 8.47696 7.05213 8.47696Z"/>
</defs>
</svg>
