<svg width="80" height="79" viewBox="0 0 80 79" version="1.1" xmlns="http://www.w3.org/2000/svg" xmlns:xlink="http://www.w3.org/1999/xlink" xmlns:figma="http://www.figma.com/figma/ns">
<title>&#208;&#184;&#208;&#189;&#209;&#130;&#208;&#181;&#208;&#189;&#209;&#129;&#208;&#184;&#208;&#178;&#209;&#139;</title>
<desc>Created using Figma</desc>
<g id="Canvas" transform="translate(407 -3356)" figma:type="canvas">
<g id="&#208;&#184;&#208;&#189;&#209;&#130;&#208;&#181;&#208;&#189;&#209;&#129;&#208;&#184;&#208;&#178;&#209;&#139;" figma:type="frame">
<g id="Group" figma:type="frame">
<g id="Vector" figma:type="vector">
<use xlink:href="#path0_fill" transform="translate(-405.172 3410.23)" fill="#E6E9ED"/>
</g>
<g id="Vector" figma:type="vector">
<use xlink:href="#path1_fill" transform="translate(-397.359 3394.25)" fill="#E6E9ED"/>
</g>
</g>
<g id="Vector" figma:type="vector">
<use xlink:href="#path2_fill" transform="translate(-368.696 3356)" fill="#434A54"/>
</g>
<g id="Group" figma:type="frame">
<g id="Vector" figma:type="vector">
<use xlink:href="#path3_fill" transform="translate(-397 3419.9)" fill="#CCD1D9"/>
</g>
<g id="Vector" figma:type="vector">
<use xlink:href="#path4_fill" transform="translate(-348.672 3414.87)" fill="#CCD1D9"/>
</g>
<g id="Vector" figma:type="vector">
<use xlink:href="#path5_fill" transform="translate(-380.344 3419.9)" fill="#CCD1D9"/>
</g>
<g id="Vector" figma:type="vector">
<use xlink:href="#path6_fill" transform="translate(-338.672 3424.93)" fill="#CCD1D9"/>
</g>
<g id="Vector" figma:type="vector">
<use xlink:href="#path7_fill" transform="translate(-380.328 3398.09)" fill="#CCD1D9"/>
</g>
<g id="Vector" figma:type="vector">
<use xlink:href="#path8_fill" transform="translate(-342.016 3398.1)" fill="#CCD1D9"/>
</g>
</g>
<g id="Vector" figma:type="vector">
<use xlink:href="#path9_fill" transform="translate(-383.875 3361.19)" fill="#FF3333"/>
</g>
<g id="Group" opacity="0.2" figma:type="frame">
<g id="Vector" opacity="0.2" figma:type="vector">
<use xlink:href="#path10_fill" transform="translate(-371.016 3390.84)" fill="#FFFFFF"/>
</g>
<g id="Vector" opacity="0.2" figma:type="vector">
<use xlink:href="#path11_fill" transform="translate(-364.656 3361.19)" fill="#FFFFFF"/>
</g>
</g>
<g id="Vector" figma:type="vector">
<use xlink:href="#path12_fill" transform="translate(-400.328 3391.37)" fill="#5D9CEC"/>
</g>
<g id="Vector" figma:type="vector">
<use xlink:href="#path13_fill" transform="translate(-407 3408.15)" fill="#FF3333"/>
</g>
<g id="Vector" figma:type="vector">
<use xlink:href="#path14_fill" transform="translate(-395.328 3421.58)" fill="#ED5564"/>
</g>
</g>
</g>
<defs>
<path id="path0_fill" d="M 10.5625 -1.91988e-06L 76.5 -1.91988e-06L 76.5 22.8523L 10.5625 22.8523L 2.64062 18.9046L -2.98023e-08 9.67251L 4.10938 2.65798L 10.5625 -1.91988e-06Z"/>
<path id="path1_fill" d="M 63.6875 0L 0 0L 0 11.3239L 63.6875 11.3239L 63.6875 0Z"/>
<path id="path2_fill" d="M 7.21176 1.68286C 7.21176 0.754927 6.46177 0 5.53989 0C 5.33677 0 5.16489 0.0314553 4.99302 0.0943659C 3.07114 0.692017 -0.319484 3.09835 0.0242655 8.20984C 0.0867655 9.09058 0.821139 9.7826 1.68051 9.7826C 1.71176 9.7826 1.75864 9.7826 1.78989 9.7826C 2.71177 9.71969 3.39927 8.91758 3.33677 7.98965C 3.08677 4.30938 5.71177 3.38145 6.00864 3.28708L 5.99302 3.28708C 6.71177 3.08262 7.21176 2.43779 7.21176 1.68286Z"/>
<path id="path3_fill" d="M 11.6719 3.36572L 1.67187 3.36572C 0.75 3.36572 2.22045e-15 2.61079 2.22045e-15 1.68286C 2.22045e-15 0.754927 0.75 -1.91988e-06 1.67187 -1.91988e-06L 11.6719 -1.91988e-06C 12.5937 -1.91988e-06 13.3437 0.754927 13.3437 1.68286C 13.3437 2.61079 12.5781 3.36572 11.6719 3.36572Z"/>
<path id="path4_fill" d="M 1.67188 -1.91988e-06C 0.75 -1.91988e-06 -1.90735e-06 0.754927 -1.90735e-06 1.68286C -1.90735e-06 2.61079 0.75 3.36572 1.67188 3.36572L 20 3.36572L 20 0.0157267L 1.67188 0.0157267L 1.67188 -1.91988e-06Z"/>
<path id="path5_fill" d="M 25 3.36572L 1.67188 3.36572C 0.75 3.36572 9.53674e-07 2.61079 9.53674e-07 1.68286C 9.53674e-07 0.754927 0.75 -1.91988e-06 1.67188 -1.91988e-06L 25 -1.91988e-06C 25.9219 -1.91988e-06 26.6719 0.754927 26.6719 1.68286C 26.6719 2.61079 25.9219 3.36572 25 3.36572Z"/>
<path id="path6_fill" d="M 1.67188 -1.91988e-06C 0.75 -1.91988e-06 -1.90735e-06 0.754927 -1.90735e-06 1.68286C -1.90735e-06 2.61079 0.75 3.36572 1.67188 3.36572L 10 3.36572L 10 0.0157267L 1.67188 0.0157267L 1.67188 -1.91988e-06Z"/>
<path id="path7_fill" d="M 15 3.36572L 1.67187 3.36572C 0.749999 3.36572 -4.76837e-07 2.61079 -4.76837e-07 1.68286C -4.76837e-07 0.754925 0.749999 9.5994e-07 1.67187 9.5994e-07L 15 9.5994e-07C 15.9219 9.5994e-07 16.6719 0.754925 16.6719 1.68286C 16.6719 2.61079 15.9063 3.36572 15 3.36572Z"/>
<path id="path8_fill" d="M 1.67188 1.91988e-06C 0.750001 1.91988e-06 -9.53674e-07 0.754926 -9.53674e-07 1.68286C -9.53674e-07 2.61079 0.750001 3.36572 1.67188 3.36572L 8.34375 3.36572L 8.34375 0.0157257L 1.67188 0.0157257L 1.67188 1.91988e-06Z"/>
<path id="path9_fill" d="M 30.7344 4.24647C 28.6406 1.50985 25.6094 0 22.1875 0C 20.4844 0 18.7031 0.361736 16.875 1.10094C 15.0469 0.377464 13.2656 0 11.5625 0C 8.15625 0 5.125 1.50986 3.01563 4.23074C 1.0625 6.76289 0 10.2859 0 14.1234C 0 18.0868 1.51563 22.1445 4.15625 25.2429C 6.82813 28.3884 10.2969 30.1814 13.6875 30.1814C 14.7813 30.1814 15.8438 29.9926 16.875 29.6309C 17.8906 30.0084 18.9688 30.1814 20.0625 30.1814C 23.4531 30.1814 26.9219 28.3727 29.5938 25.2429C 32.2344 22.1288 33.75 18.0711 33.75 14.1234C 33.75 10.2859 32.6719 6.77862 30.7344 4.24647Z"/>
<path id="path10_fill" d="M 2.34375 0C 1.57813 0.283098 0.796875 0.456102 4.76837e-07 0.519013C 0.28125 0.550468 0.546876 0.550468 0.828126 0.550468C 1.625 0.550468 2.42188 0.456103 3.17188 0.251643C 2.90625 0.173005 2.625 0.0943659 2.34375 0Z"/>
<path id="path11_fill" d="M 11.5156 4.24647C 9.42188 1.50985 6.39063 0 2.96875 0C 2.6875 0 2.40625 0.0157278 2.125 0.0314554C 5.20313 0.251643 7.92188 1.73004 9.84375 4.24647C 11.7969 6.77862 12.8594 10.3016 12.8594 14.1392C 12.8594 18.1025 11.3438 22.1603 8.70313 25.2586C 6.25 28.1368 3.125 29.8983 0 30.1656C 0.28125 30.1971 0.546873 30.1971 0.828123 30.1971C 4.21875 30.1971 7.6875 28.3884 10.3594 25.2586C 13 22.1445 14.5156 18.0868 14.5156 14.1392C 14.5312 10.2859 13.4531 6.77862 11.5156 4.24647Z"/>
<path id="path12_fill" d="M 66.6562 13.4314L 64.9844 13.4314L 63.3281 13.4314L 42.9375 13.4314L 8.32812 13.4314C 5.5625 13.4314 3.32812 11.1824 3.32812 8.39857C 3.32812 5.6305 5.5625 3.36572 8.32812 3.36572L 42.9375 3.36572L 63.3281 3.36572L 65 3.36572L 66.6719 3.36572C 67.5938 3.36572 68.3438 2.61079 68.3438 1.68286C 68.3438 0.754928 67.5938 -9.5994e-07 66.6719 -9.5994e-07L 65 -9.5994e-07L 8.32812 -9.5994e-07C 3.73438 -9.5994e-07 1.19209e-07 3.75891 1.19209e-07 8.38284C 1.19209e-07 13.0068 3.73438 16.7657 8.32812 16.7657L 64.9844 16.7657L 66.6562 16.7657C 67.5781 16.7657 68.3281 16.0107 68.3281 15.0828C 68.3281 14.1549 67.5781 13.4314 66.6562 13.4314Z"/>
<path id="path13_fill" d="M 78.3281 23.4971L 35.3438 23.4971L 13.3281 23.4971C 7.8125 23.4971 3.32812 18.9833 3.32812 13.4314C 3.32812 7.87955 7.8125 3.36572 13.3281 3.36572L 35.3438 3.36572L 78.3281 3.36572C 79.25 3.36572 80 2.61079 80 1.68286C 80 0.754925 79.25 9.5994e-07 78.3281 9.5994e-07L 13.3281 9.5994e-07C 5.98438 0.0157286 0 6.03942 0 13.4314C 0 20.8234 5.98438 26.8471 13.3281 26.8471L 78.3281 26.8471C 79.25 26.8471 80 26.0922 80 25.1642C 80 24.2363 79.25 23.4971 78.3281 23.4971Z"/>
<path id="path14_fill" d="M -4.76837e-07 0L -4.76837e-07 5.03285C -4.76837e-07 5.61477 0.296875 6.14951 0.796875 6.46407C 1.28125 6.76289 1.90625 6.79435 2.42187 6.54271L 5.01562 5.23731L 7.60937 6.54271C 7.84375 6.66853 8.09375 6.71571 8.35937 6.71571C 8.67187 6.71571 8.96875 6.63707 9.23438 6.46407C 9.73438 6.14951 10.0312 5.61477 10.0312 5.03285L 10.0312 0L -4.76837e-07 0Z"/>
</defs>
</svg>
