<svg width="17" height="15" viewBox="0 0 17 15" version="1.1" xmlns="http://www.w3.org/2000/svg" xmlns:xlink="http://www.w3.org/1999/xlink" xmlns:figma="http://www.figma.com/figma/ns">
<title>Vector</title>
<desc>Created using Figma</desc>
<g id="Canvas" transform="translate(-377 -5834)" figma:type="canvas">
<g id="Vector" figma:type="vector">
<use xlink:href="#path0_fill" transform="translate(377 5834)" fill="#333333"/>
</g>
</g>
<defs>
<path id="path0_fill" d="M 16.3143 8.81026C 16.0446 8.43346 15.9196 7.97325 15.9201 7.50816C 15.9202 7.50546 15.9202 7.50276 15.9202 7.50002C 15.9202 3.35789 12.5981 1.76568e-08 8.50002 1.76568e-08C 7.60353 1.76568e-08 6.74453 0.161273 5.94908 0.456004C 5.51875 0.615434 5.04734 0.646077 4.60615 0.520462C 4.21644 0.409503 3.80015 0.362703 3.36889 0.392703C 1.5573 0.518704 0.0988651 2.01936 0.00498893 3.85233C -0.0398291 4.72723 0.219751 5.53882 0.685655 6.18974C 0.955369 6.56654 1.08037 7.02675 1.07982 7.49184C 1.07982 7.49454 1.07982 7.49724 1.07982 7.49998C 1.07982 11.6421 4.40191 15 8.49998 15C 9.39651 15 10.2555 14.8387 11.0509 14.544C 11.4812 14.3846 11.9527 14.3539 12.3938 14.4795C 12.7836 14.5905 13.1998 14.6373 13.6311 14.6073C 15.4427 14.4813 16.9011 12.9807 16.995 11.1478C 17.0398 10.2729 16.7802 9.46122 16.3143 8.81026ZM 8.77164 6.15541C 10.2678 6.51503 12.5287 7.05846 12.5287 9.5757C 12.5287 10.8157 11.9246 11.7617 10.8274 12.2392C 10.0445 12.5801 9.15847 12.626 8.39495 12.626C 6.04864 12.626 4.56672 10.782 4.50477 10.7034C 4.12053 10.2163 4.19961 9.50652 4.68158 9.11815C 5.16343 8.7296 5.86568 8.80975 6.25 9.29674C 6.25344 9.30089 7.13966 10.3296 8.39495 10.3699C 9.90655 10.4184 10.2519 9.96377 10.2966 9.57574C 10.3511 9.10182 9.93403 8.7539 8.25511 8.35036C 6.83204 8.00827 4.68124 7.49132 4.68124 5.17303C 4.68124 4.4511 4.97174 2.09556 8.70991 2.09556C 11.0703 2.09556 12.4636 3.97396 12.5217 4.05393C 12.8868 4.55592 12.7802 5.26204 12.2836 5.631C 11.7891 5.99838 11.0949 5.89325 10.7284 5.39735C 10.7021 5.36319 9.9046 4.46635 8.70991 4.35171C 7.80591 4.26492 6.91337 4.59441 6.91337 5.08114C 6.91337 5.59685 7.16968 5.77034 8.77164 6.15541Z"/>
</defs>
</svg>
