<svg width="22" height="23" viewBox="0 0 22 23" version="1.1" xmlns="http://www.w3.org/2000/svg" xmlns:xlink="http://www.w3.org/1999/xlink" xmlns:figma="http://www.figma.com/figma/ns">
<title>Spades-b</title>
<desc>Created using Figma</desc>
<g id="Canvas" transform="translate(46 -4917)" figma:type="canvas">
<g id="Spades-b" figma:type="vector">
<use xlink:href="#path0_fill" transform="translate(-46 4917)"/>
</g>
</g>
<defs>
<path id="path0_fill" d="M 21.1617 9.80277C 19.689 7.20178 16.6945 3.47207 11.0982 0.0368064C 11.0491 -0.0122688 11 -0.0122688 10.9509 0.0368064C 5.30553 3.47207 2.31102 7.10363 0.838313 9.70462C -0.879847 12.7473 0.101959 16.4279 3.24374 17.9983C 4.07827 18.3909 4.66735 18.44 5.35462 18.44C 5.35462 18.44 5.55098 18.44 5.79643 18.3909C 7.07278 18.1946 8.20185 17.6057 9.13457 16.6733L 9.28184 16.5261C 9.4782 16.3298 9.77274 16.477 9.77274 16.7714C 9.62547 18.1946 9.38002 20.3539 8.30003 21.728C 7.9564 22.1697 8.25094 22.7586 8.79094 22.7586L 13.2582 22.7586C 13.7981 22.7586 14.0436 22.1206 13.7491 21.728C 12.62 20.3539 12.3745 18.1456 12.2763 16.7224C 12.2763 16.477 12.5218 16.3788 12.6691 16.5261C 13.4545 17.4094 14.4363 17.9983 15.5654 18.2928C 16.2036 18.44 16.6454 18.4891 16.6454 18.4891C 17.3326 18.4891 17.9217 18.44 18.7563 18.0474C 21.898 16.5261 22.8798 12.8454 21.1617 9.80277Z"/>
</defs>
</svg>
