<svg width="25" height="14" viewBox="0 0 25 14" version="1.1" xmlns="http://www.w3.org/2000/svg" xmlns:xlink="http://www.w3.org/1999/xlink" xmlns:figma="http://www.figma.com/figma/ns">
<title>Vector</title>
<desc>Created using Figma</desc>
<g id="Canvas" transform="translate(-520 -6004)" figma:type="canvas">
<g id="Vector" figma:type="vector">
<use xlink:href="#path0_fill" transform="translate(520 6004)" fill="#507299"/>
</g>
</g>
<defs>
<path id="path0_fill" d="M 24.0219 12.6435C 23.9927 12.5795 23.9654 12.5264 23.9401 12.4838C 23.5211 11.7171 22.7204 10.7759 21.5385 9.66014L 21.5135 9.63459L 21.501 9.62206L 21.4884 9.60922L 21.4757 9.60922C 20.9393 9.08965 20.5996 8.7403 20.4573 8.56144C 20.1971 8.22073 20.1387 7.87586 20.281 7.52642C 20.3815 7.26241 20.759 6.70485 21.4127 5.85298C 21.7565 5.40152 22.0288 5.03968 22.2299 4.76708C 23.6802 2.80801 24.3089 1.55614 24.116 1.01098L 24.0411 0.883578C 23.9908 0.80688 23.8609 0.736714 23.6515 0.672725C 23.4417 0.608869 23.1736 0.598309 22.8466 0.640865L 19.2254 0.666281C 19.1667 0.64516 19.083 0.647129 18.9738 0.672725C 18.8648 0.698321 18.8103 0.711164 18.8103 0.711164L 18.7473 0.743158L 18.6973 0.781597C 18.6553 0.807014 18.6092 0.851717 18.5589 0.915617C 18.5088 0.979294 18.4669 1.05402 18.4334 1.13918C 18.0392 2.16977 17.591 3.12796 17.0879 4.0137C 16.7777 4.54186 16.4928 4.99959 16.2327 5.38715C 15.9729 5.77458 15.755 6.06003 15.5791 6.243C 15.4029 6.42616 15.2439 6.57289 15.1011 6.68373C 14.9586 6.79461 14.8497 6.84146 14.7744 6.82432C 14.6989 6.80719 14.6277 6.79018 14.5604 6.77318C 14.4431 6.69648 14.3488 6.59217 14.2777 6.46017C 14.2062 6.32816 14.1581 6.16201 14.133 5.96185C 14.108 5.76156 14.0932 5.58928 14.0889 5.44443C 14.085 5.29976 14.0868 5.09513 14.0953 4.83111C 14.104 4.56697 14.108 4.38824 14.108 4.29454C 14.108 3.97083 14.1142 3.61952 14.1266 3.2405C 14.1393 2.86148 14.1496 2.56118 14.1582 2.33995C 14.1667 2.11849 14.1707 1.88419 14.1707 1.63718C 14.1707 1.39017 14.1559 1.19646 14.1266 1.05586C 14.0978 0.915438 14.0534 0.779136 13.995 0.646995C 13.9362 0.514988 13.8501 0.412873 13.7372 0.340382C 13.6241 0.267979 13.4834 0.210523 13.316 0.167833C 12.8717 0.0656733 12.3059 0.0104095 11.6184 0.0018179C 10.0593 -0.0151863 9.0575 0.0871074 8.61322 0.308565C 8.43719 0.402133 8.27789 0.529978 8.13547 0.691698C 7.98454 0.879147 7.96349 0.981442 8.07244 0.998267C 8.57547 1.07483 8.93158 1.25798 9.14117 1.54755L 9.2167 1.70099C 9.27545 1.8117 9.33411 2.00769 9.39282 2.28871C 9.45144 2.56973 9.48927 2.88059 9.50592 3.22112C 9.54776 3.84299 9.54776 4.37531 9.50592 4.81814C 9.46395 5.26114 9.42431 5.60602 9.38648 5.85302C 9.34865 6.10003 9.2921 6.30019 9.2167 6.45345C 9.14117 6.60676 9.09092 6.70046 9.06573 6.73447C 9.04059 6.76848 9.01962 6.78991 9.00297 6.79833C 8.89402 6.84075 8.7807 6.86236 8.66342 6.86236C 8.54597 6.86236 8.40354 6.80267 8.23592 6.68337C 8.06835 6.56407 7.89443 6.4002 7.71417 6.1915C 7.53392 5.98275 7.33063 5.69104 7.10421 5.31632C 6.87798 4.9416 6.64324 4.49873 6.40014 3.9877L 6.19901 3.6171C 6.07327 3.37868 5.90151 3.03153 5.68356 2.57595C 5.46547 2.12019 5.2727 1.67933 5.10513 1.25346C 5.03814 1.07461 4.93751 0.938439 4.80341 0.844737L 4.74047 0.806298C 4.69863 0.772289 4.63147 0.736177 4.53934 0.697694C 4.44707 0.659256 4.3508 0.631691 4.25013 0.614731L 0.804884 0.640148C 0.452824 0.640148 0.213949 0.721187 0.088169 0.88304L 0.0378308 0.959604C 0.0126837 1.00225 0 1.07036 0 1.1641C 0 1.25781 0.0251471 1.37281 0.0754854 1.50898C 0.578428 2.71001 1.12537 3.86832 1.7163 4.98406C 2.30724 6.09981 2.82075 6.99857 3.25653 7.67955C 3.6924 8.36102 4.13668 9.00418 4.58937 9.60872C 5.04206 10.2135 5.34171 10.6011 5.48832 10.7713C 5.63511 10.9419 5.75041 11.0694 5.83422 11.1546L 6.14862 11.4612C 6.3498 11.6656 6.64522 11.9105 7.03503 12.1957C 7.42492 12.4812 7.85656 12.7622 8.33017 13.0392C 8.80387 13.3158 9.35495 13.5415 9.98371 13.7161C 10.6124 13.8908 11.2243 13.961 11.8195 13.9271L 13.2655 13.9271C 13.5588 13.9014 13.781 13.8077 13.932 13.646L 13.982 13.5819C 14.0157 13.5311 14.0471 13.4521 14.0762 13.3459C 14.1056 13.2394 14.1203 13.1221 14.1203 12.9945C 14.1117 12.6284 14.1391 12.2984 14.2018 12.0045C 14.2645 11.7108 14.3359 11.4894 14.4158 11.3402C 14.4957 11.1912 14.5858 11.0655 14.686 10.9635C 14.7865 10.8614 14.8582 10.7995 14.9002 10.7782C 14.9419 10.7567 14.9753 10.7422 15.0004 10.7335C 15.2016 10.6654 15.4383 10.7313 15.711 10.9317C 15.9835 11.1318 16.2391 11.379 16.4781 11.6727C 16.7171 11.9667 17.0041 12.2965 17.3394 12.6627C 17.6748 13.029 17.9681 13.3013 18.2195 13.4804L 18.4709 13.6337C 18.6388 13.736 18.8567 13.8297 19.125 13.9149C 19.3928 14 19.6275 14.0213 19.829 13.9787L 23.0477 13.9277C 23.3661 13.9277 23.6138 13.8742 23.7896 13.7679C 23.9656 13.6614 24.0702 13.5441 24.104 13.4166C 24.1376 13.2888 24.1394 13.144 24.1104 12.982C 24.0805 12.8204 24.0512 12.7074 24.0219 12.6435Z"/>
</defs>
</svg>
