<svg width="35" height="20" viewBox="0 0 35 20" version="1.1" xmlns="http://www.w3.org/2000/svg" xmlns:xlink="http://www.w3.org/1999/xlink">
<title>vklogo</title>
<desc>Created using Figma</desc>
<g id="Canvas" transform="translate(-818 -840)">
<g id="vklogo">
<use xlink:href="#path0_fill" transform="translate(818 840)" fill="#FFFFFF"/>
</g>
</g>
<defs>
<path id="path0_fill" d="M 34.8144 17.8306C 34.772 17.7403 34.7325 17.6654 34.6958 17.6054C 34.0885 16.5241 32.9281 15.1968 31.2152 13.6233L 31.179 13.5872L 31.1609 13.5696L 31.1426 13.5515L 31.1242 13.5515C 30.3468 12.8187 29.8545 12.3261 29.6483 12.0738C 29.2711 11.5933 29.1866 11.107 29.3927 10.6142C 29.5384 10.2419 30.0855 9.45555 31.0328 8.2542C 31.5311 7.61752 31.9258 7.10725 32.2172 6.7228C 34.3191 3.96002 35.2303 2.19456 34.9508 1.42573L 34.8422 1.24607C 34.7693 1.13791 34.581 1.03896 34.2776 0.948714C 33.9735 0.858662 33.5849 0.843769 33.111 0.903783L 27.8629 0.939627C 27.7779 0.909841 27.6565 0.912618 27.4983 0.948714C 27.3403 0.984811 27.2613 1.00292 27.2613 1.00292L 27.17 1.04804L 27.0975 1.10225C 27.0367 1.1381 26.9699 1.20114 26.8969 1.29126C 26.8244 1.38106 26.7637 1.48644 26.7151 1.60653C 26.1438 3.05993 25.4941 4.41122 24.765 5.66035C 24.3155 6.40519 23.9027 7.0507 23.5257 7.59727C 23.1491 8.14364 22.8333 8.54619 22.5783 8.80423C 22.323 9.06253 22.0926 9.26945 21.8857 9.42577C 21.6791 9.58214 21.5214 9.64822 21.4122 9.62405C 21.3027 9.59988 21.1996 9.5759 21.102 9.55192C 20.9321 9.44375 20.7953 9.29665 20.6923 9.11049C 20.5887 8.92433 20.519 8.69001 20.4826 8.40774C 20.4463 8.12527 20.4249 7.88232 20.4188 7.67804C 20.4131 7.47402 20.4157 7.18544 20.428 6.81311C 20.4407 6.44059 20.4463 6.18855 20.4463 6.0564C 20.4463 5.59989 20.4553 5.10445 20.4734 4.56994C 20.4918 4.03543 20.5066 3.61192 20.5191 3.29992C 20.5315 2.98761 20.5372 2.65719 20.5372 2.30884C 20.5372 1.9605 20.5158 1.68731 20.4734 1.48903C 20.4315 1.291 20.3673 1.09878 20.2826 0.912429C 20.1973 0.726265 20.0726 0.582257 19.909 0.480025C 19.745 0.377919 19.5411 0.296891 19.2985 0.236688C 18.6546 0.0926162 17.8346 0.0146801 16.8382 0.0025637C 14.5787 -0.0214166 13.1268 0.122844 12.4829 0.435156C 12.2278 0.567111 11.9969 0.747405 11.7905 0.975471C 11.5718 1.23982 11.5413 1.38408 11.6992 1.40781C 12.4282 1.51579 12.9443 1.77408 13.2481 2.18244L 13.3575 2.39883C 13.4427 2.55496 13.5277 2.83136 13.6128 3.22767C 13.6977 3.62398 13.7526 4.06237 13.7767 4.54261C 13.8373 5.4196 13.8373 6.17031 13.7767 6.79481C 13.7159 7.41956 13.6584 7.90592 13.6036 8.25426C 13.5488 8.60261 13.4668 8.88488 13.3575 9.10102C 13.2481 9.31723 13.1753 9.44937 13.1387 9.49733C 13.1023 9.54529 13.0719 9.57552 13.0478 9.58738C 12.8899 9.64721 12.7257 9.67769 12.5557 9.67769C 12.3855 9.67769 12.179 9.5935 11.9361 9.42526C 11.6933 9.25702 11.4412 9.02593 11.18 8.7316C 10.9187 8.43721 10.6241 8.02582 10.296 7.49737C 9.96808 6.96892 9.62789 6.34436 9.27556 5.62368L 8.98407 5.10104C 8.80184 4.76481 8.55292 4.27523 8.23704 3.63275C 7.92097 2.99001 7.6416 2.36829 7.39874 1.76771C 7.30166 1.51547 7.15581 1.32344 6.96146 1.1913L 6.87025 1.13709C 6.80962 1.08913 6.71228 1.0382 6.57875 0.983928C 6.44504 0.929719 6.30551 0.890846 6.1596 0.866929L 1.1665 0.902773C 0.656267 0.902773 0.31007 1.01706 0.127781 1.24531L 0.0548272 1.35329C 0.0183821 1.41343 0 1.50948 0 1.64168C 0 1.77383 0.0364451 1.93601 0.109399 2.12804C 0.838301 3.82181 1.63097 5.45532 2.48739 7.02881C 3.34382 8.60229 4.08804 9.86978 4.71961 10.8301C 5.3513 11.7912 5.99519 12.6982 6.65126 13.5508C 7.30734 14.4036 7.74161 14.9502 7.95409 15.1903C 8.16683 15.4309 8.33393 15.6107 8.45539 15.7308L 8.91105 16.1632C 9.20261 16.4515 9.63076 16.7968 10.1957 17.1991C 10.7607 17.6017 11.3863 17.998 12.0727 18.3887C 12.7592 18.7787 13.5579 19.097 14.4691 19.3432C 15.3803 19.5896 16.2671 19.6885 17.1297 19.6408L 19.2254 19.6408C 19.6504 19.6045 19.9724 19.4724 20.1913 19.2443L 20.2638 19.154C 20.3126 19.0823 20.3582 18.971 20.4003 18.8211C 20.443 18.6709 20.4641 18.5055 20.4641 18.3256C 20.4517 17.8092 20.4915 17.3438 20.5823 16.9295C 20.6732 16.5152 20.7767 16.2029 20.8925 15.9926C 21.0082 15.7825 21.1388 15.6051 21.2841 15.4614C 21.4298 15.3173 21.5336 15.23 21.5944 15.2C 21.655 15.1698 21.7033 15.1492 21.7397 15.1369C 22.0313 15.0409 22.3744 15.1339 22.7696 15.4164C 23.1645 15.6987 23.5349 16.0472 23.8814 16.4615C 24.2276 16.8761 24.6436 17.3412 25.1295 17.8576C 25.6157 18.3742 26.0408 18.7582 26.4051 19.0108L 26.7694 19.227C 27.0127 19.3713 27.3286 19.5034 27.7174 19.6235C 28.1055 19.7436 28.4456 19.7736 28.7376 19.7136L 33.4025 19.6416C 33.8639 19.6416 34.223 19.5661 34.4776 19.4162C 34.7328 19.2661 34.8844 19.1007 34.9333 18.9208C 34.9821 18.7407 34.9847 18.5363 34.9425 18.3079C 34.8993 18.08 34.8568 17.9207 34.8144 17.8306Z"/>
</defs>
</svg>
