<svg width="70" height="70" viewBox="0 0 70 70" version="1.1" xmlns="http://www.w3.org/2000/svg" xmlns:xlink="http://www.w3.org/1999/xlink" xmlns:figma="http://www.figma.com/figma/ns">
<title>&#208;&#164;&#208;&#184;&#209;&#136;&#208;&#186;&#208;&#176;</title>
<desc>Created using Figma</desc>
<g id="Canvas" transform="translate(-1186 -1589)" figma:type="canvas">
<rect x="1186" y="1589" width="70" height="70" fill="#E5E5E5"/>
<g id="1920" figma:type="frame">
<mask id="mask0_alpha" mask-type="alpha">
<path d="M -449 699L 1451 699L 1451 1699L -449 1699L -449 699Z" fill="#FFFFFF"/>
</mask>
<g id="2. &#208;&#167;&#209;&#130;&#208;&#190; &#209;&#130;&#208;&#176;&#208;&#186;&#208;&#190;&#208;&#181; AWS" mask="url(#mask0_alpha)" figma:type="frame">
<path d="M -449 699L 1451 699L 1451 1699L -449 1699L -449 699Z" fill="#FFFFFF"/>
<g id="&#208;&#148;&#208;&#190;&#208;&#191; &#209;&#141;&#208;&#187;&#208;&#181;&#208;&#188;&#208;&#181;&#208;&#189;&#209;&#130;&#209;&#139;" figma:type="instance">
<g id="&#208;&#151;&#208;&#176;&#208;&#191;&#208;&#184;&#209;&#129;&#209;&#140; &#208;&#189;&#208;&#176; &#208;&#190;&#208;&#177;&#209;&#131;&#209;&#135;&#208;&#181;&#208;&#189;&#208;&#184;&#208;&#181;" figma:type="frame">
<g id="&#208;&#164;&#208;&#184;&#209;&#136;&#208;&#186;&#208;&#176;" figma:type="frame">
<g id="&#208;&#164;&#208;&#184;&#209;&#136;&#208;&#186;&#208;&#176;" filter="url(#filter0_d)" figma:type="frame">
<g id="&#208;&#166;&#208;&#178;&#208;&#181;&#209;&#130; &#209;&#132;&#208;&#184;&#209;&#136;&#208;&#186;&#208;&#184;" figma:type="ellipse">
<use xlink:href="#path0_fill" transform="translate(1191 1592)" fill="#FAFAFA"/>
</g>
<g id="&#208;&#145;&#208;&#181;&#208;&#187;&#209;&#139;&#208;&#181; &#208;&#191;&#208;&#190;&#208;&#187;&#208;&#190;&#209;&#129;&#208;&#186;&#208;&#184;" figma:type="frame">
<mask id="mask1_alpha" mask-type="alpha">
<g id="Ellipse" figma:type="ellipse">
<use xlink:href="#path0_fill" transform="translate(1191 1592)" fill="#A93054"/>
</g>
</mask>
<g id="Vector" mask="url(#mask1_alpha)" figma:type="vector">
<use xlink:href="#path1_fill" transform="translate(1192.17 1592.96)" fill="#E7E7E7"/>
<use xlink:href="#path2_fill" transform="translate(1192.17 1592.96)" fill="#E7E7E7"/>
<use xlink:href="#path3_fill" transform="translate(1192.17 1592.96)" fill="#E7E7E7"/>
<use xlink:href="#path4_fill" transform="translate(1192.17 1592.96)" fill="#E7E7E7"/>
<use xlink:href="#path5_fill" transform="translate(1192.17 1592.96)" fill="#E7E7E7"/>
<use xlink:href="#path6_fill" transform="translate(1192.17 1592.96)" fill="#E7E7E7"/>
<use xlink:href="#path7_fill" transform="translate(1192.17 1592.96)" fill="#E7E7E7"/>
<use xlink:href="#path8_fill" transform="translate(1192.17 1592.96)" fill="#E7E7E7"/>
</g>
</g>
<g id="Ellipse" figma:type="ellipse">
<use xlink:href="#path9_fill" transform="translate(1194.6 1595.6)" fill="#FFFFFF"/>
</g>
<g id="Ellipse" figma:type="ellipse">
<use xlink:href="#path10_fill" transform="translate(1197.6 1598.6)" fill="#F27379"/>
</g>
<g id="Ellipse" figma:type="ellipse">
<mask id="mask2_outline_ins">
<use xlink:href="#path11_fill" fill="white" transform="translate(1198.2 1599.2)"/>
</mask>
<g mask="url(#mask2_outline_ins)">
<use xlink:href="#path12_stroke_2x" transform="translate(1198.2 1599.2)" fill="#FFFFFF"/>
</g>
</g>
</g>
<mask id="mask3_alpha" mask-type="alpha">
<path d="M 1214.04 1601.48L 1227.84 1601.48L 1227.84 1616.24L 1214.04 1616.24L 1214.04 1601.48Z" fill="#FFFFFF"/>
</mask>
<g id="&#208;&#157;&#208;&#176; &#209;&#132;&#208;&#184;&#209;&#136;&#208;&#186;&#208;&#181;" mask="url(#mask3_alpha)" figma:type="frame">
</g>
<g id="Logo" figma:type="frame">
<g id="Vector" figma:type="vector">
<use xlink:href="#path13_fill" transform="translate(1208.52 1608.1)" fill="#F2F2F2"/>
</g>
<g id="Vector" figma:type="vector">
<use xlink:href="#path14_fill" transform="translate(1212.04 1614.34)" fill="#F2F2F2"/>
</g>
<g id="Vector" figma:type="vector">
<use xlink:href="#path15_fill" transform="translate(1220.73 1614.53)" fill="#F2F2F2"/>
</g>
<g id="Vector" figma:type="vector">
<use xlink:href="#path16_fill" transform="translate(1221.77 1615.3)" fill="#A01015"/>
</g>
<g id="Vector" figma:type="vector">
<use xlink:href="#path17_fill" transform="translate(1212.62 1616.25)" fill="#A01015"/>
</g>
<g id="Group" figma:type="frame">
<g id="Vector" figma:type="vector">
<use xlink:href="#path18_fill" transform="translate(1214.85 1618.03)" fill="#A01015"/>
</g>
</g>
<g id="Group" figma:type="frame">
<g id="Vector" figma:type="vector">
<use xlink:href="#path19_fill" transform="translate(1221.95 1617.99)" fill="#A01015"/>
</g>
</g>
</g>
</g>
</g>
</g>
</g>
</g>
</g>
<defs>
<filter id="filter0_d" filterUnits="userSpaceOnUse" x="1186" y="1589" width="70" height="70" color-interpolation-filters="sRGB">
<feFlood flood-opacity="0" result="BackgroundImageFix"/>
<desc>type="dropShadow" x="0" y="2" size="5" spread="0" color="0,0,0,0.15" blend="normal"</desc>
<feColorMatrix in="SourceAlpha" type="matrix" values="0 0 0 0 0 0 0 0 0 0 0 0 0 0 0 0 0 0 255 0"/>
<feOffset dx="0" dy="2"/>
<feGaussianBlur stdDeviation="2.5"/>
<feColorMatrix type="matrix" values="0 0 0 0 0 0 0 0 0 0 0 0 0 0 0 0 0 0 0.15 0"/>
<feBlend mode="normal" in2="BackgroundImageFix" result="effect1_dropShadow"/>
<feBlend mode="normal" in="SourceGraphic" in2="effect1_dropShadow" result="shape"/>
</filter>
<path id="path0_fill" d="M 60 30C 60 46.5685 46.5685 60 30 60C 13.4315 60 0 46.5685 0 30C 0 13.4315 13.4315 0 30 0C 46.5685 0 60 13.4315 60 30Z"/>
<path id="path1_fill" d="M 40.4107 0L 48.9307 4.32L 43.3507 10.68L 38.0107 7.26L 40.4107 0Z"/>
<path id="path2_fill" d="M 51.4202 7.32889L 57.2243 14.916L 49.4385 18.2275L 46.1095 12.8302L 51.4202 7.32889Z"/>
<path id="path3_fill" d="M 57.0516 39.8977L 52.8846 48.4935L 46.4258 43.0281L 49.7498 37.6279L 57.0516 39.8977Z"/>
<path id="path4_fill" d="M 50.1769 50.6234L 42.5008 56.3115L 39.2048 48.2828L 44.6611 45.0514L 50.1769 50.6234Z"/>
<path id="path5_fill" d="M 17.4873 57.0584L 8.79065 53.1031L 14.2142 46.3275L 19.6861 49.5326L 17.4873 57.0584Z"/>
<path id="path6_fill" d="M 6.72941 49.9135L 0.462134 42.7025L 8.21049 38.7927L 11.8561 43.9815L 6.72941 49.9135Z"/>
<path id="path7_fill" d="M 0 17.3375L 4.55431 8.93902L 10.9337 14.8235L 7.35345 20.0576L 0 17.3375Z"/>
<path id="path8_fill" d="M 7.56338 6.59418L 15.0928 0.713252L 18.5914 8.65578L 13.2187 12.0246L 7.56338 6.59418Z"/>
<path id="path9_fill" d="M 52.8 26.4C 52.8 40.9803 40.9803 52.8 26.4 52.8C 11.8197 52.8 0 40.9803 0 26.4C 0 11.8197 11.8197 0 26.4 0C 40.9803 0 52.8 11.8197 52.8 26.4Z"/>
<path id="path10_fill" d="M 46.8 23.4C 46.8 36.3235 36.3235 46.8 23.4 46.8C 10.4765 46.8 0 36.3235 0 23.4C 0 10.4765 10.4765 0 23.4 0C 36.3235 0 46.8 10.4765 46.8 23.4Z"/>
<path id="path11_fill" d="M 45.6 22.8C 45.6 35.3921 35.3921 45.6 22.8 45.6C 10.2079 45.6 0 35.3921 0 22.8C 0 10.2079 10.2079 0 22.8 0C 35.3921 0 45.6 10.2079 45.6 22.8Z"/>
<path id="path12_stroke_2x" d="M 45.1 22.8C 45.1 35.116 35.116 45.1 22.8 45.1L 22.8 46.1C 35.6682 46.1 46.1 35.6682 46.1 22.8L 45.1 22.8ZM 22.8 45.1C 10.4841 45.1 0.5 35.116 0.5 22.8L -0.5 22.8C -0.5 35.6682 9.93177 46.1 22.8 46.1L 22.8 45.1ZM 0.5 22.8C 0.5 10.4841 10.4841 0.5 22.8 0.5L 22.8 -0.5C 9.93177 -0.5 -0.5 9.93177 -0.5 22.8L 0.5 22.8ZM 22.8 0.5C 35.116 0.5 45.1 10.4841 45.1 22.8L 46.1 22.8C 46.1 9.93177 35.6682 -0.5 22.8 -0.5L 22.8 0.5Z"/>
<path id="path13_fill" d="M 12.4105 0C 7.40995 0.657279 1.92181 2.84821 0 4.13289C 0 4.90967 0.0573673 5.97526 0.210347 7.24002L 0.258153 7.6085C 1.01349 13.3348 3.78624 22.7359 12.42 27.8049C 20.9773 22.7558 23.7788 13.295 24.5532 7.6085C 24.5723 7.46908 24.5915 7.33961 24.6106 7.21015C 24.7636 5.97526 24.8209 4.93955 24.8209 4.2026C 22.8131 2.85817 17.5066 0.637361 12.4105 0ZM 23.9604 7.68817C 23.6832 9.63013 23.1477 12.1995 22.0864 14.968C 21.1303 17.4677 19.8873 19.7283 18.4149 21.6703C 16.7321 23.8911 14.7147 25.7235 12.42 27.1177C 10.0967 25.7036 8.06967 23.8712 6.37734 21.6603C 4.88578 19.7184 3.65239 17.4577 2.69627 14.968C 1.73058 12.4485 1.15691 9.88906 0.850949 7.70809C 0.803143 7.36949 0.908316 7.02093 1.13779 6.77196C 3.05959 4.65074 6.04269 2.01167 12.4774 1.86229C 18.8165 2.01167 21.704 4.55116 23.6831 6.74208C 23.9031 7.00101 24.0082 7.33961 23.9604 7.68817Z"/>
<path id="path14_fill" d="M 7.70968 0.258928C 7.681 0.119506 7.58538 0.0199176 7.46109 7.59794e-08C 7.44196 7.59794e-08 7.42284 7.59794e-08 7.40372 7.59794e-08L 0.22324 1.49381C 0.156311 1.51373 0.0893827 1.55357 0.0511378 1.62328C 0.00333172 1.69299 -0.0062295 1.78262 0.00333172 1.87225L 2.06856 12.6974C 2.09724 12.8369 2.19285 12.9364 2.31715 12.9564C 2.33627 12.9564 2.35539 12.9564 2.37452 12.9564L 7.91046 11.8111L 8.17818 11.7613L 9.59324 11.4725C 9.74622 11.4426 9.84183 11.2733 9.81315 11.104L 8.75185 5.53707L 8.64668 4.97938L 7.70968 0.258928Z"/>
<path id="path15_fill" d="M 8.27046 0.998041L 1.01349 0.00216383C 0.86051 -0.0177537 0.70753 0.101752 0.688408 0.28101L 0.124296 4.76245L 1.29076 10.8572C 1.33857 11.1261 1.18559 11.395 0.927438 11.4448L -2.91785e-07 11.634L 6.80759 12.5701C 6.96057 12.59 7.11355 12.4705 7.13267 12.2913L 8.50949 1.3466C 8.53817 1.1773 8.42344 1.01796 8.27046 0.998041Z"/>
<path id="path16_fill" d="M 0.101543 0.127137C 0.359696 -0.181585 0.818635 0.127137 0.761267 0.465735C 0.78039 0.117178 1.2967 -0.0521205 1.47836 0.306395C 1.73651 0.83421 0.789951 1.43174 0.617849 1.57116C 0.493553 1.40186 -0.271344 0.565323 0.101543 0.127137Z"/>
<path id="path17_fill" d="M 0.968849 1.58868C 0.796747 1.45922 -0.188059 0.9314 0.0318491 0.383667C 0.184829 0.00523431 0.710696 0.144658 0.758502 0.493215C 0.672451 0.154616 1.11227 -0.174023 1.38954 0.104822C 1.80068 0.523091 1.08358 1.40942 0.968849 1.58868Z"/>
<path id="path18_fill" d="M 1.79751 6.03501L 0.0478058 6.38357L -2.91785e-07 6.14456C 0.172102 6.02505 0.353765 5.91551 0.525867 5.83584L 1.5298 0.0497935L 1.75926 -3.03917e-07L 4.73281 5.00926C 4.83798 5.00926 4.95271 5.01922 5.05789 5.01922C 5.16306 5.02918 5.26823 5.04909 5.36385 5.08893L 5.41165 5.32794L 3.38467 5.72629L 3.33687 5.48728C 3.43248 5.42753 3.53765 5.36777 3.64283 5.30802C 3.748 5.25823 3.85317 5.20843 3.94879 5.15864L 3.14564 3.76441L 1.27164 4.13289L 1.03261 5.73625C 1.26208 5.72629 1.49155 5.74621 1.74014 5.796L 1.79751 6.03501ZM 1.36725 3.67479L 2.94486 3.36606L 2.08435 1.74278L 1.73058 1.07555L 1.71146 1.07555L 1.60629 1.83241L 1.36725 3.67479Z"/>
<path id="path19_fill" d="M 3.35599 0.348557L 5.0292 0.577608L 5.00052 0.80666C 4.89535 0.836537 4.79017 0.866412 4.69456 0.88633C 4.59895 0.906248 4.49378 0.916206 4.40772 0.926165L 2.61977 2.81833C 2.72495 3.00755 2.84924 3.22664 2.9831 3.46565C 3.11696 3.70466 3.26038 3.95363 3.41336 4.2026C 3.56634 4.45157 3.71932 4.7105 3.88186 4.96942C 4.0444 5.22835 4.19738 5.47732 4.35036 5.71633L 4.69456 5.95534L 4.66588 6.15452L 3.71932 6.02505L 3.48985 5.796C 3.24125 5.38769 2.99266 4.95947 2.74407 4.50136C 2.50504 4.04326 2.26601 3.5752 2.0461 3.10714L 1.67321 3.05734L 1.39594 5.27815C 1.62541 5.34786 1.80707 5.43749 1.94093 5.54703L 1.91224 5.77609L 5.43493e-15 5.51716L 0.028684 5.2881C 0.239031 5.22835 0.458939 5.19848 0.669286 5.18852L 1.26208 0.507897C 1.04217 0.448145 0.841388 0.348557 0.669286 0.229052L 0.69797 3.03917e-07L 2.61021 0.258928L 2.58153 0.487979C 2.49548 0.517856 2.39987 0.537774 2.30426 0.557691C 2.20864 0.577609 2.10347 0.597526 1.98873 0.607485L 1.71146 2.78846L 2.17996 2.73866L 3.86273 0.856454C 3.76712 0.816619 3.67151 0.776784 3.58546 0.72699C 3.49941 0.687155 3.41336 0.637361 3.34643 0.577608L 3.35599 0.348557Z"/>
</defs>
</svg>
